<?xml version="1.0" encoding="UTF-8"?>
<!DOCTYPE svg PUBLIC "-//W3C//DTD SVG 1.1//EN" "http://www.w3.org/Graphics/SVG/1.1/DTD/svg11.dtd">
<svg xmlns="http://www.w3.org/2000/svg" version="1.1" width="500px" height="500px" style="shape-rendering:geometricPrecision; text-rendering:geometricPrecision; image-rendering:optimizeQuality; fill-rule:evenodd; clip-rule:evenodd" xmlns:xlink="http://www.w3.org/1999/xlink">
<g><path style="opacity:1" fill="#e59fe7" d="M 188.5,65.5 C 187.833,65.5 187.167,65.5 186.5,65.5C 185.833,65.5 185.167,65.5 184.5,65.5C 175.676,64.3427 166.676,64.176 157.5,65C 159.645,65.7431 159.811,66.5765 158,67.5C 156.374,66.9818 154.707,66.6484 153,66.5C 149.592,67.6191 146.092,68.2857 142.5,68.5C 154.144,63.006 166.478,61.1727 179.5,63C 182.797,63.2037 185.797,64.037 188.5,65.5 Z"/></g>
<g><path style="opacity:1" fill="#e573ec" d="M 184.5,65.5 C 185.167,65.5 185.833,65.5 186.5,65.5C 184.369,66.3138 182.036,66.8138 179.5,67C 182.54,68.8489 185.874,70.0156 189.5,70.5C 184.996,76.2742 178.996,78.9409 171.5,78.5C 171.023,79.4776 170.357,80.3109 169.5,81C 165.921,81.7919 162.588,83.1253 159.5,85C 160.833,85.3333 162.167,85.6667 163.5,86C 162.01,87.772 160.343,87.9387 158.5,86.5C 154.843,88.6628 151.176,90.8295 147.5,93C 146.134,94.5998 145.134,96.4332 144.5,98.5C 140.366,99.0153 136.366,100.015 132.5,101.5C 132.167,101.833 131.833,102.167 131.5,102.5C 134.044,103.937 134.044,105.437 131.5,107C 129.833,107.833 128.167,108.667 126.5,109.5C 124.929,108.691 123.262,108.357 121.5,108.5C 121.748,111.44 120.748,113.44 118.5,114.5C 119.688,116.262 121.355,117.262 123.5,117.5C 122.449,118.222 121.782,119.222 121.5,120.5C 119.508,120.328 117.842,120.995 116.5,122.5C 116.167,121.667 115.833,120.833 115.5,120C 116.601,113.296 118.435,106.796 121,100.5C 130.953,82.8838 145.786,71.7171 165.5,67C 171.787,65.8928 178.12,65.3928 184.5,65.5 Z"/></g>
<g><path style="opacity:1" fill="#de6de7" d="M 186.5,65.5 C 187.167,65.5 187.833,65.5 188.5,65.5C 202.294,69.7303 214.961,76.0637 226.5,84.5C 226.414,85.4959 226.748,86.3292 227.5,87C 229.384,87.2163 231.051,87.883 232.5,89C 199.434,89.6401 168.101,96.8067 138.5,110.5C 133.38,112.56 128.38,114.893 123.5,117.5C 121.355,117.262 119.688,116.262 118.5,114.5C 120.748,113.44 121.748,111.44 121.5,108.5C 123.262,108.357 124.929,108.691 126.5,109.5C 128.167,108.667 129.833,107.833 131.5,107C 134.044,105.437 134.044,103.937 131.5,102.5C 131.833,102.167 132.167,101.833 132.5,101.5C 136.366,100.015 140.366,99.0153 144.5,98.5C 145.134,96.4332 146.134,94.5998 147.5,93C 151.176,90.8295 154.843,88.6628 158.5,86.5C 160.343,87.9387 162.01,87.772 163.5,86C 162.167,85.6667 160.833,85.3333 159.5,85C 162.588,83.1253 165.921,81.7919 169.5,81C 170.357,80.3109 171.023,79.4776 171.5,78.5C 178.996,78.9409 184.996,76.2742 189.5,70.5C 185.874,70.0156 182.54,68.8489 179.5,67C 182.036,66.8138 184.369,66.3138 186.5,65.5 Z"/></g>
<g><path style="opacity:1" fill="#eb8fef" d="M 184.5,65.5 C 178.12,65.3928 171.787,65.8928 165.5,67C 145.786,71.7171 130.953,82.8838 121,100.5C 118.435,106.796 116.601,113.296 115.5,120C 115.833,120.833 116.167,121.667 116.5,122.5C 117.842,120.995 119.508,120.328 121.5,120.5C 117.332,123.142 112.998,125.642 108.5,128C 107.833,129 107.167,130 106.5,131C 102.98,132.422 99.6468,133.922 96.5,135.5C 98.2362,103.657 113.569,81.3236 142.5,68.5C 146.092,68.2857 149.592,67.6191 153,66.5C 154.707,66.6484 156.374,66.9818 158,67.5C 159.811,66.5765 159.645,65.7431 157.5,65C 166.676,64.176 175.676,64.3427 184.5,65.5 Z"/></g>
<g><path style="opacity:1" fill="#986ab3" d="M 239.5,91.5 C 242.869,93.5146 246.202,95.5146 249.5,97.5C 246.713,98.4767 243.713,98.81 240.5,98.5C 240.167,98.5 239.833,98.5 239.5,98.5C 219.135,96.4955 198.802,97.4955 178.5,101.5C 178.953,100.542 179.619,99.7083 180.5,99C 200.041,96.6898 219.707,95.8565 239.5,96.5C 239.5,94.8333 239.5,93.1667 239.5,91.5 Z"/></g>
<g><path style="opacity:1" fill="#a6c0de" d="M 249.5,97.5 C 251.153,97.6596 252.486,98.3263 253.5,99.5C 248.968,99.8182 244.634,99.4849 240.5,98.5C 243.713,98.81 246.713,98.4767 249.5,97.5 Z"/></g>
<g><path style="opacity:1" fill="#af55b7" d="M 226.5,84.5 C 231.068,86.4027 235.402,88.736 239.5,91.5C 239.5,93.1667 239.5,94.8333 239.5,96.5C 219.707,95.8565 200.041,96.6898 180.5,99C 179.619,99.7083 178.953,100.542 178.5,101.5C 178.167,101.5 177.833,101.5 177.5,101.5C 172.135,101.867 166.802,102.533 161.5,103.5C 153.003,105.373 145.337,107.706 138.5,110.5C 168.101,96.8067 199.434,89.6401 232.5,89C 231.051,87.883 229.384,87.2163 227.5,87C 226.748,86.3292 226.414,85.4959 226.5,84.5 Z"/></g>
<g><path style="opacity:1" fill="#85ece9" d="M 239.5,98.5 C 239.833,98.5 240.167,98.5 240.5,98.5C 244.634,99.4849 248.968,99.8182 253.5,99.5C 283.082,103.129 309.082,114.629 331.5,134C 336.453,139.107 340.786,144.607 344.5,150.5C 342.709,149.517 341.209,148.184 340,146.5C 339.023,147.774 338.189,147.774 337.5,146.5C 336.365,145.526 335.365,144.359 334.5,143C 315.28,132.319 294.613,126.152 272.5,124.5C 247.114,121.482 221.78,122.148 196.5,126.5C 197.058,125.21 198.058,124.377 199.5,124C 203.656,123.815 207.656,122.982 211.5,121.5C 208.973,120.786 206.473,120.12 204,119.5C 199.984,119.831 195.484,119.831 190.5,119.5C 190.5,118.5 190.5,117.5 190.5,116.5C 177.163,116.667 163.829,116.5 150.5,116C 148.108,113.613 148.441,111.446 151.5,109.5C 155.86,108.41 160.193,108.41 164.5,109.5C 165.578,106.792 167.578,105.292 170.5,105C 177.529,103.881 184.529,102.548 191.5,101C 197.942,100.917 204.275,100.251 210.5,99C 220.161,98.5002 229.828,98.3335 239.5,98.5 Z"/></g>
<g><path style="opacity:1" fill="#99d8ec" d="M 239.5,98.5 C 229.828,98.3335 220.161,98.5002 210.5,99C 204.275,100.251 197.942,100.917 191.5,101C 184.529,102.548 177.529,103.881 170.5,105C 167.578,105.292 165.578,106.792 164.5,109.5C 160.193,108.41 155.86,108.41 151.5,109.5C 152.808,108.768 154.142,107.934 155.5,107C 162.85,104.681 170.184,102.847 177.5,101.5C 177.833,101.5 178.167,101.5 178.5,101.5C 198.802,97.4955 219.135,96.4955 239.5,98.5 Z"/></g>
<g><path style="opacity:1" fill="#a766b9" d="M 177.5,101.5 C 170.184,102.847 162.85,104.681 155.5,107C 154.142,107.934 152.808,108.768 151.5,109.5C 144.525,110.329 138.192,112.829 132.5,117C 128.616,117.716 124.949,118.883 121.5,120.5C 121.782,119.222 122.449,118.222 123.5,117.5C 128.38,114.893 133.38,112.56 138.5,110.5C 145.337,107.706 153.003,105.373 161.5,103.5C 166.802,102.533 172.135,101.867 177.5,101.5 Z"/></g>
<g><path style="opacity:1" fill="#67e1e0" d="M 272.5,124.5 C 258.714,125.473 244.881,125.473 231,124.5C 230.383,125.449 230.549,126.282 231.5,127C 239.926,130.379 247.926,134.546 255.5,139.5C 261.771,144.565 267.771,149.899 273.5,155.5C 276.438,160.945 279.605,166.279 283,171.5C 283.813,173.436 284.313,175.436 284.5,177.5C 283.833,177.5 283.167,177.5 282.5,177.5C 279.124,174.122 275.457,171.122 271.5,168.5C 270.341,166.75 268.674,165.75 266.5,165.5C 264.966,163.631 262.966,162.298 260.5,161.5C 260.167,161.5 259.833,161.5 259.5,161.5C 259.196,160.85 258.863,160.183 258.5,159.5C 249.071,156.762 239.405,155.762 229.5,156.5C 229.167,156.5 228.833,156.5 228.5,156.5C 223.695,155.513 218.695,155.179 213.5,155.5C 211.435,155.517 209.435,155.85 207.5,156.5C 207.461,155.417 207.127,154.417 206.5,153.5C 207.856,151.049 209.356,148.716 211,146.5C 211.186,148.9 211.686,151.234 212.5,153.5C 213.429,152.311 213.762,150.978 213.5,149.5C 219.067,150.247 220.9,147.913 219,142.5C 217.089,145.303 214.589,145.97 211.5,144.5C 212.025,143.808 212.692,143.308 213.5,143C 206.174,142.5 198.841,142.334 191.5,142.5C 191.714,140.856 191.38,139.356 190.5,138C 185.573,138.266 180.573,137.932 175.5,137C 173.326,134.648 170.659,133.481 167.5,133.5C 177.058,131.079 186.724,128.745 196.5,126.5C 221.78,122.148 247.114,121.482 272.5,124.5 Z"/></g>
<g><path style="opacity:1" fill="#85e6e6" d="M 151.5,109.5 C 148.441,111.446 148.108,113.613 150.5,116C 163.829,116.5 177.163,116.667 190.5,116.5C 190.5,117.5 190.5,118.5 190.5,119.5C 195.484,119.831 199.984,119.831 204,119.5C 206.473,120.12 208.973,120.786 211.5,121.5C 207.656,122.982 203.656,123.815 199.5,124C 198.058,124.377 197.058,125.21 196.5,126.5C 186.724,128.745 177.058,131.079 167.5,133.5C 152.385,136.249 138.051,140.916 124.5,147.5C 122.856,147.714 121.356,147.38 120,146.5C 117.093,147.431 114.26,148.431 111.5,149.5C 111.5,148.5 111.5,147.5 111.5,146.5C 105.847,147.326 100.514,147.326 95.5,146.5C 92.2707,147.983 91.9373,149.816 94.5,152C 92.5646,153.849 90.7312,155.683 89,157.5C 88.0546,157.095 87.3879,156.428 87,155.5C 86.6667,156.167 86.3333,156.833 86,157.5C 85.5,156.333 84.6667,155.5 83.5,155C 84.5729,152.343 86.2395,150.177 88.5,148.5C 88.1667,148.167 87.8333,147.833 87.5,147.5C 86.3777,148.63 85.0443,149.297 83.5,149.5C 87.8895,144.781 92.2228,140.115 96.5,135.5C 99.6468,133.922 102.98,132.422 106.5,131C 107.167,130 107.833,129 108.5,128C 112.998,125.642 117.332,123.142 121.5,120.5C 124.949,118.883 128.616,117.716 132.5,117C 138.192,112.829 144.525,110.329 151.5,109.5 Z"/></g>
<g><path style="opacity:1" fill="#5de2e0" d="M 272.5,124.5 C 294.613,126.152 315.28,132.319 334.5,143C 335.365,144.359 336.365,145.526 337.5,146.5C 334.484,147.059 331.484,147.725 328.5,148.5C 316.985,146.139 305.318,144.972 293.5,145C 292.167,144.333 292.167,143.667 293.5,143C 286.439,142.107 279.439,140.941 272.5,139.5C 271.614,140.325 271.281,141.325 271.5,142.5C 269.473,142.662 267.473,142.495 265.5,142C 266.833,141.667 268.167,141.333 269.5,141C 264.874,140.888 260.541,139.721 256.5,137.5C 255.702,137.957 255.369,138.624 255.5,139.5C 247.926,134.546 239.926,130.379 231.5,127C 230.549,126.282 230.383,125.449 231,124.5C 244.881,125.473 258.714,125.473 272.5,124.5 Z"/></g>
<g><path style="opacity:1" fill="#61dddd" d="M 167.5,133.5 C 170.659,133.481 173.326,134.648 175.5,137C 180.573,137.932 185.573,138.266 190.5,138C 191.38,139.356 191.714,140.856 191.5,142.5C 198.841,142.334 206.174,142.5 213.5,143C 212.692,143.308 212.025,143.808 211.5,144.5C 214.589,145.97 217.089,145.303 219,142.5C 220.9,147.913 219.067,150.247 213.5,149.5C 213.762,150.978 213.429,152.311 212.5,153.5C 211.686,151.234 211.186,148.9 211,146.5C 209.356,148.716 207.856,151.049 206.5,153.5C 207.127,154.417 207.461,155.417 207.5,156.5C 205.901,156.232 204.568,156.566 203.5,157.5C 195.188,158.581 186.855,159.581 178.5,160.5C 177.5,160.5 176.5,160.5 175.5,160.5C 175.5,159.5 175.5,158.5 175.5,157.5C 164.927,155.808 154.26,155.474 143.5,156.5C 143.5,155.167 143.5,153.833 143.5,152.5C 140.399,152.692 137.399,153.358 134.5,154.5C 131.138,153.033 127.971,153.366 125,155.5C 124.535,154.069 123.701,152.903 122.5,152C 122.833,151.667 123.167,151.333 123.5,151C 122.207,150.51 120.873,150.343 119.5,150.5C 121.072,149.313 122.739,148.313 124.5,147.5C 138.051,140.916 152.385,136.249 167.5,133.5 Z"/></g>
<g><path style="opacity:1" fill="#56dddc" d="M 337.5,146.5 C 338.189,147.774 339.023,147.774 340,146.5C 341.209,148.184 342.709,149.517 344.5,150.5C 345.833,151.833 347.167,153.167 348.5,154.5C 348.629,156.216 348.962,157.883 349.5,159.5C 349.133,163.055 350.133,166.055 352.5,168.5C 352.762,169.978 352.429,171.311 351.5,172.5C 348.097,168.928 344.263,165.928 340,163.5C 339.667,164.833 339.333,166.167 339,167.5C 337.853,166.542 336.853,166.875 336,168.5C 334.812,167.437 334.312,166.103 334.5,164.5C 329.8,165.502 325.3,165.169 321,163.5C 320.127,163.735 319.293,164.069 318.5,164.5C 309.705,163.049 300.872,161.715 292,160.5C 289.657,160.682 287.824,161.682 286.5,163.5C 285.289,161.05 283.622,159.05 281.5,157.5C 280.353,157.818 279.519,158.484 279,159.5C 277.743,157.254 275.91,155.921 273.5,155.5C 267.771,149.899 261.771,144.565 255.5,139.5C 255.369,138.624 255.702,137.957 256.5,137.5C 260.541,139.721 264.874,140.888 269.5,141C 268.167,141.333 266.833,141.667 265.5,142C 267.473,142.495 269.473,142.662 271.5,142.5C 271.281,141.325 271.614,140.325 272.5,139.5C 279.439,140.941 286.439,142.107 293.5,143C 292.167,143.667 292.167,144.333 293.5,145C 305.318,144.972 316.985,146.139 328.5,148.5C 331.484,147.725 334.484,147.059 337.5,146.5 Z"/></g>
<g><path style="opacity:1" fill="#90b3e2" d="M 213.5,155.5 C 218.695,155.179 223.695,155.513 228.5,156.5C 223.405,156.221 218.405,156.555 213.5,157.5C 213.5,156.833 213.5,156.167 213.5,155.5 Z"/></g>
<g><path style="opacity:1" fill="#7bc3df" d="M 229.5,156.5 C 239.405,155.762 249.071,156.762 258.5,159.5C 258.863,160.183 259.196,160.85 259.5,161.5C 249.676,158.577 239.676,156.911 229.5,156.5 Z"/></g>
<g><path style="opacity:1" fill="#9f69c9" d="M 228.5,156.5 C 228.833,156.5 229.167,156.5 229.5,156.5C 239.676,156.911 249.676,158.577 259.5,161.5C 259.833,161.5 260.167,161.5 260.5,161.5C 260.833,162.167 261.167,162.833 261.5,163.5C 246.797,159.33 231.797,157.83 216.5,159C 215.008,160.991 214.008,163.158 213.5,165.5C 213.5,163.5 213.5,161.5 213.5,159.5C 213.5,158.833 213.5,158.167 213.5,157.5C 218.405,156.555 223.405,156.221 228.5,156.5 Z"/></g>
<g><path style="opacity:1" fill="#4bd7d7" d="M 273.5,155.5 C 275.91,155.921 277.743,157.254 279,159.5C 279.519,158.484 280.353,157.818 281.5,157.5C 283.622,159.05 285.289,161.05 286.5,163.5C 287.824,161.682 289.657,160.682 292,160.5C 300.872,161.715 309.705,163.049 318.5,164.5C 319.293,164.069 320.127,163.735 321,163.5C 325.3,165.169 329.8,165.502 334.5,164.5C 334.312,166.103 334.812,167.437 336,168.5C 336.853,166.875 337.853,166.542 339,167.5C 339.333,166.167 339.667,164.833 340,163.5C 344.263,165.928 348.097,168.928 351.5,172.5C 352.429,171.311 352.762,169.978 352.5,168.5C 356.09,178.712 357.423,189.379 356.5,200.5C 355.686,198.369 355.186,196.036 355,193.5C 354.333,196.167 353.667,196.167 353,193.5C 352.667,193.833 352.333,194.167 352,194.5C 350.991,192.975 350.491,191.308 350.5,189.5C 344.611,189.096 338.777,189.096 333,189.5C 323.246,187.719 313.413,186.385 303.5,185.5C 301.772,183.774 299.772,182.441 297.5,181.5C 295.605,182.973 293.939,184.64 292.5,186.5C 289.703,183.541 287.037,180.541 284.5,177.5C 284.313,175.436 283.813,173.436 283,171.5C 279.605,166.279 276.438,160.945 273.5,155.5 Z"/></g>
<g><path style="opacity:1" fill="#56d4d6" d="M 119.5,150.5 C 120.873,150.343 122.207,150.51 123.5,151C 123.167,151.333 122.833,151.667 122.5,152C 123.701,152.903 124.535,154.069 125,155.5C 127.971,153.366 131.138,153.033 134.5,154.5C 137.399,153.358 140.399,152.692 143.5,152.5C 143.5,153.833 143.5,155.167 143.5,156.5C 154.26,155.474 164.927,155.808 175.5,157.5C 175.5,158.5 175.5,159.5 175.5,160.5C 176.5,160.5 177.5,160.5 178.5,160.5C 170.171,162.498 161.837,164.498 153.5,166.5C 153.5,166.833 153.5,167.167 153.5,167.5C 151.073,167.523 148.74,168.023 146.5,169C 143.234,170.058 140.234,171.558 137.5,173.5C 135.254,174.455 132.921,175.122 130.5,175.5C 128.223,176.449 126.223,177.782 124.5,179.5C 121.881,179.925 119.547,180.925 117.5,182.5C 109.043,186.089 100.377,188.422 91.5,189.5C 85.8585,187.525 80.1918,186.859 74.5,187.5C 86.5375,171.637 101.537,159.303 119.5,150.5 Z"/></g>
<g><path style="opacity:1" fill="#37acad" d="M 203.5,157.5 C 204.873,157.343 206.207,157.51 207.5,158C 191.344,162.691 175.677,168.525 160.5,175.5C 159.391,175.557 158.391,175.89 157.5,176.5C 158.207,173.214 158.54,169.881 158.5,166.5C 156.833,166.5 155.167,166.5 153.5,166.5C 161.837,164.498 170.171,162.498 178.5,160.5C 186.855,159.581 195.188,158.581 203.5,157.5 Z"/></g>
<g><path style="opacity:1" fill="#86a7d6" d="M 260.5,161.5 C 262.966,162.298 264.966,163.631 266.5,165.5C 264.716,165.107 263.05,164.441 261.5,163.5C 261.167,162.833 260.833,162.167 260.5,161.5 Z"/></g>
<g><path style="opacity:1" fill="#66bcd4" d="M 349.5,159.5 C 351.284,160.574 352.451,162.24 353,164.5C 355.39,169.605 356.89,174.938 357.5,180.5C 357.5,189.5 357.5,198.5 357.5,207.5C 357.167,207.5 356.833,207.5 356.5,207.5C 356.5,205.167 356.5,202.833 356.5,200.5C 357.423,189.379 356.09,178.712 352.5,168.5C 350.133,166.055 349.133,163.055 349.5,159.5 Z"/></g>
<g><path style="opacity:1" fill="#b251cb" d="M 261.5,163.5 C 263.05,164.441 264.716,165.107 266.5,165.5C 268.674,165.75 270.341,166.75 271.5,168.5C 274.169,172.352 276.169,176.519 277.5,181C 276.874,181.75 276.374,182.584 276,183.5C 273.836,180.553 273.002,177.219 273.5,173.5C 271.801,173.34 270.134,173.506 268.5,174C 269.357,174.689 270.023,175.522 270.5,176.5C 265.69,177.023 261.024,178.023 256.5,179.5C 252.972,182.764 248.972,185.264 244.5,187C 243.313,188.019 242.313,189.186 241.5,190.5C 235.114,193.026 229.114,196.026 223.5,199.5C 223.808,201.924 223.474,204.257 222.5,206.5C 221.702,204.922 221.202,203.256 221,201.5C 219.89,203.037 218.39,203.703 216.5,203.5C 216.771,198.566 216.104,193.9 214.5,189.5C 213.57,182.223 213.236,174.89 213.5,167.5C 213.5,166.833 213.5,166.167 213.5,165.5C 214.008,163.158 215.008,160.991 216.5,159C 231.797,157.83 246.797,159.33 261.5,163.5 Z"/></g>
<g><path style="opacity:1" fill="#43d1d2" d="M 213.5,155.5 C 213.5,156.167 213.5,156.833 213.5,157.5C 213.5,158.167 213.5,158.833 213.5,159.5C 213.167,159.5 212.833,159.5 212.5,159.5C 211.883,159.611 211.383,159.944 211,160.5C 209.13,170.747 208.297,181.08 208.5,191.5C 207.539,189.735 207.205,187.735 207.5,185.5C 202.141,185.33 196.808,184.83 191.5,184C 194.167,183.667 196.833,183.333 199.5,183C 189.094,182.743 178.761,181.909 168.5,180.5C 165.322,180.689 161.988,181.022 158.5,181.5C 158.614,179.282 159.28,177.282 160.5,175.5C 175.677,168.525 191.344,162.691 207.5,158C 206.207,157.51 204.873,157.343 203.5,157.5C 204.568,156.566 205.901,156.232 207.5,156.5C 209.435,155.85 211.435,155.517 213.5,155.5 Z"/></g>
<g><path style="opacity:1" fill="#727eb6" d="M 212.5,159.5 C 212.833,159.5 213.167,159.5 213.5,159.5C 213.5,161.5 213.5,163.5 213.5,165.5C 213.5,166.167 213.5,166.833 213.5,167.5C 212.596,168.209 212.263,169.209 212.5,170.5C 212.167,170.5 211.833,170.5 211.5,170.5C 211.423,166.785 211.756,163.119 212.5,159.5 Z"/></g>
<g><path style="opacity:1" fill="#8c61af" d="M 153.5,167.5 C 154.5,167.5 155.5,167.5 156.5,167.5C 156.002,172.152 155.669,176.819 155.5,181.5C 155.768,183.099 155.434,184.432 154.5,185.5C 154.5,183.167 154.5,180.833 154.5,178.5C 154.5,175.167 154.5,171.833 154.5,168.5C 151.941,168.39 149.608,169.056 147.5,170.5C 150.469,171.668 150.802,173.001 148.5,174.5C 147.377,173.456 146.044,172.79 144.5,172.5C 142.182,172.997 139.848,173.33 137.5,173.5C 140.234,171.558 143.234,170.058 146.5,169C 148.74,168.023 151.073,167.523 153.5,167.5 Z"/></g>
<g><path style="opacity:1" fill="#72d8da" d="M 124.5,147.5 C 122.739,148.313 121.072,149.313 119.5,150.5C 101.537,159.303 86.5375,171.637 74.5,187.5C 66.3117,198.052 61.9783,210.052 61.5,223.5C 55.3399,194.661 62.6732,169.994 83.5,149.5C 85.0443,149.297 86.3777,148.63 87.5,147.5C 87.8333,147.833 88.1667,148.167 88.5,148.5C 86.2395,150.177 84.5729,152.343 83.5,155C 84.6667,155.5 85.5,156.333 86,157.5C 86.3333,156.833 86.6667,156.167 87,155.5C 87.3879,156.428 88.0546,157.095 89,157.5C 90.7312,155.683 92.5646,153.849 94.5,152C 91.9373,149.816 92.2707,147.983 95.5,146.5C 100.514,147.326 105.847,147.326 111.5,146.5C 111.5,147.5 111.5,148.5 111.5,149.5C 114.26,148.431 117.093,147.431 120,146.5C 121.356,147.38 122.856,147.714 124.5,147.5 Z"/></g>
<g><path style="opacity:1" fill="#aa4cc6" d="M 271.5,168.5 C 275.457,171.122 279.124,174.122 282.5,177.5C 283.11,178.391 283.443,179.391 283.5,180.5C 283.5,182.5 283.5,184.5 283.5,186.5C 281.142,185.822 278.975,185.488 277,185.5C 276.065,190.074 274.565,190.407 272.5,186.5C 267.503,190.334 262.17,193.667 256.5,196.5C 255.614,197.325 255.281,198.325 255.5,199.5C 247.886,203.747 240.219,208.081 232.5,212.5C 231.614,213.325 231.281,214.325 231.5,215.5C 228.948,215.645 226.615,216.145 224.5,217C 223.718,214.26 223.218,211.426 223,208.5C 222.5,212 222,215.5 221.5,219C 222.497,221.833 223.497,224.666 224.5,227.5C 222.712,227.785 221.045,227.452 219.5,226.5C 220.777,225.078 220.443,224.078 218.5,223.5C 218.051,218.032 216.884,212.699 215,207.5C 214.501,201.509 214.334,195.509 214.5,189.5C 216.104,193.9 216.771,198.566 216.5,203.5C 218.39,203.703 219.89,203.037 221,201.5C 221.202,203.256 221.702,204.922 222.5,206.5C 223.474,204.257 223.808,201.924 223.5,199.5C 229.114,196.026 235.114,193.026 241.5,190.5C 242.313,189.186 243.313,188.019 244.5,187C 248.972,185.264 252.972,182.764 256.5,179.5C 261.024,178.023 265.69,177.023 270.5,176.5C 270.023,175.522 269.357,174.689 268.5,174C 270.134,173.506 271.801,173.34 273.5,173.5C 273.002,177.219 273.836,180.553 276,183.5C 276.374,182.584 276.874,181.75 277.5,181C 276.169,176.519 274.169,172.352 271.5,168.5 Z"/></g>
<g><path style="opacity:1" fill="#7891c1" d="M 130.5,175.5 C 129.292,178.044 127.292,179.378 124.5,179.5C 126.223,177.782 128.223,176.449 130.5,175.5 Z"/></g>
<g><path style="opacity:1" fill="#6089b3" d="M 153.5,167.5 C 153.5,167.167 153.5,166.833 153.5,166.5C 155.167,166.5 156.833,166.5 158.5,166.5C 158.54,169.881 158.207,173.214 157.5,176.5C 156.699,178.042 156.366,179.708 156.5,181.5C 156.167,181.5 155.833,181.5 155.5,181.5C 155.669,176.819 156.002,172.152 156.5,167.5C 155.5,167.5 154.5,167.5 153.5,167.5 Z"/></g>
<g><path style="opacity:1" fill="#7892c2" d="M 124.5,179.5 C 121.127,182.19 117.46,184.523 113.5,186.5C 114.833,185.167 116.167,183.833 117.5,182.5C 119.547,180.925 121.881,179.925 124.5,179.5 Z"/></g>
<g><path style="opacity:1" fill="#39cacd" d="M 160.5,175.5 C 159.28,177.282 158.614,179.282 158.5,181.5C 161.988,181.022 165.322,180.689 168.5,180.5C 178.761,181.909 189.094,182.743 199.5,183C 196.833,183.333 194.167,183.667 191.5,184C 196.808,184.83 202.141,185.33 207.5,185.5C 207.205,187.735 207.539,189.735 208.5,191.5C 208.5,191.833 208.5,192.167 208.5,192.5C 207.807,196.565 207.14,200.732 206.5,205C 193.477,204.248 180.477,202.915 167.5,201C 164.308,200.803 161.308,199.97 158.5,198.5C 158.094,201.939 157.094,204.939 155.5,207.5C 155.584,198.822 155.917,190.155 156.5,181.5C 156.366,179.708 156.699,178.042 157.5,176.5C 158.391,175.89 159.391,175.557 160.5,175.5 Z"/></g>
<g><path style="opacity:1" fill="#9f4bae" d="M 154.5,178.5 C 132.147,189.479 113.147,204.479 97.5,223.5C 97.5,216.5 97.5,209.5 97.5,202.5C 101.86,197.473 106.527,192.806 111.5,188.5C 111.5,187.167 112.167,186.5 113.5,186.5C 117.46,184.523 121.127,182.19 124.5,179.5C 127.292,179.378 129.292,178.044 130.5,175.5C 132.921,175.122 135.254,174.455 137.5,173.5C 139.848,173.33 142.182,172.997 144.5,172.5C 146.044,172.79 147.377,173.456 148.5,174.5C 150.802,173.001 150.469,171.668 147.5,170.5C 149.608,169.056 151.941,168.39 154.5,168.5C 154.5,171.833 154.5,175.167 154.5,178.5 Z"/></g>
<g><path style="opacity:1" fill="#a248c1" d="M 283.5,180.5 C 284.906,180.973 285.573,181.973 285.5,183.5C 289.355,192.486 289.355,201.486 285.5,210.5C 284.167,212.167 282.833,213.833 281.5,215.5C 278.729,218.392 275.729,221.058 272.5,223.5C 272.167,223.5 271.833,223.5 271.5,223.5C 267.56,224.723 263.893,226.39 260.5,228.5C 256.112,228.385 252.112,229.385 248.5,231.5C 247.5,231.5 246.5,231.5 245.5,231.5C 236.867,232.377 228.2,232.711 219.5,232.5C 219.037,229.518 218.704,226.518 218.5,223.5C 220.443,224.078 220.777,225.078 219.5,226.5C 221.045,227.452 222.712,227.785 224.5,227.5C 223.497,224.666 222.497,221.833 221.5,219C 222,215.5 222.5,212 223,208.5C 223.218,211.426 223.718,214.26 224.5,217C 226.615,216.145 228.948,215.645 231.5,215.5C 231.281,214.325 231.614,213.325 232.5,212.5C 240.219,208.081 247.886,203.747 255.5,199.5C 255.281,198.325 255.614,197.325 256.5,196.5C 262.17,193.667 267.503,190.334 272.5,186.5C 274.565,190.407 276.065,190.074 277,185.5C 278.975,185.488 281.142,185.822 283.5,186.5C 283.5,184.5 283.5,182.5 283.5,180.5 Z"/></g>
<g><path style="opacity:1" fill="#43c6cc" d="M 117.5,182.5 C 116.167,183.833 114.833,185.167 113.5,186.5C 112.167,186.5 111.5,187.167 111.5,188.5C 105.273,192.055 99.9396,196.722 95.5,202.5C 95.5,202.833 95.5,203.167 95.5,203.5C 92.0482,207.299 89.3815,211.632 87.5,216.5C 86.3263,217.514 85.6596,218.847 85.5,220.5C 84.4138,220.62 83.7472,221.287 83.5,222.5C 81.2836,227.935 80.1169,233.602 80,239.5C 79.7811,238.062 79.2811,236.729 78.5,235.5C 77.914,235.709 77.414,236.043 77,236.5C 77.7676,240.547 77.4342,244.213 76,247.5C 74.3539,246.221 73.1872,244.555 72.5,242.5C 71.8243,243.602 71.1577,244.602 70.5,245.5C 66.7196,238.493 63.7196,231.16 61.5,223.5C 61.9783,210.052 66.3117,198.052 74.5,187.5C 80.1918,186.859 85.8585,187.525 91.5,189.5C 100.377,188.422 109.043,186.089 117.5,182.5 Z"/></g>
<g><path style="opacity:1" fill="#8d39b3" d="M 369.5,167.5 C 379.833,172.664 389.833,178.331 399.5,184.5C 400.925,185.922 401.925,187.589 402.5,189.5C 402.034,192.531 402.034,195.698 402.5,199C 400.699,199.317 400.366,199.984 401.5,201C 400.258,201.311 399.258,200.811 398.5,199.5C 397.692,199.808 397.025,200.308 396.5,201C 392.179,201.499 387.846,201.666 383.5,201.5C 383.563,207.38 381.063,211.714 376,214.5C 374.984,213.366 374.317,213.699 374,215.5C 373.159,211.359 372.826,207.359 373,203.5C 372.346,204.696 371.846,204.696 371.5,203.5C 372.68,201.546 373.346,199.379 373.5,197C 372.905,187.066 370.238,177.9 365.5,169.5C 365.281,168.325 365.614,167.325 366.5,166.5C 367.417,167.127 368.417,167.461 369.5,167.5 Z"/></g>
<g><path style="opacity:1" fill="#5f64a2" d="M 357.5,180.5 C 360.047,189.492 360.047,198.492 357.5,207.5C 357.5,198.5 357.5,189.5 357.5,180.5 Z"/></g>
<g><path style="opacity:1" fill="#6f2e8f" d="M 348.5,154.5 C 355.704,158.597 362.704,162.93 369.5,167.5C 368.417,167.461 367.417,167.127 366.5,166.5C 365.614,167.325 365.281,168.325 365.5,169.5C 373.871,200.438 368.537,228.438 349.5,253.5C 342.253,259.801 334.586,265.634 326.5,271C 320.848,271.997 315.515,273.83 310.5,276.5C 307.201,277.21 303.867,277.543 300.5,277.5C 300.34,279.199 300.506,280.866 301,282.5C 303.334,285.113 305.834,287.446 308.5,289.5C 308.629,291.216 308.962,292.883 309.5,294.5C 306.939,292.36 304.605,290.027 302.5,287.5C 300.828,284.787 299.162,282.12 297.5,279.5C 297.107,277.716 296.441,276.05 295.5,274.5C 295.5,273.5 295.5,272.5 295.5,271.5C 299.466,269.281 303.8,268.114 308.5,268C 310.692,266.933 312.358,265.433 313.5,263.5C 317.286,263.607 320.286,262.107 322.5,259C 324.5,258.667 326.5,258.333 328.5,258C 328.043,257.586 327.709,257.086 327.5,256.5C 328.857,254.814 330.19,253.148 331.5,251.5C 331.5,250.833 331.5,250.167 331.5,249.5C 334.5,248.5 336.5,246.5 337.5,243.5C 341.138,240.856 344.138,237.522 346.5,233.5C 351.537,225.437 354.87,216.77 356.5,207.5C 356.833,207.5 357.167,207.5 357.5,207.5C 360.047,198.492 360.047,189.492 357.5,180.5C 356.89,174.938 355.39,169.605 353,164.5C 352.451,162.24 351.284,160.574 349.5,159.5C 348.962,157.883 348.629,156.216 348.5,154.5 Z"/></g>
<g><path style="opacity:1" fill="#bf59d3" d="M 154.5,178.5 C 154.5,180.833 154.5,183.167 154.5,185.5C 153.883,185.611 153.383,185.944 153,186.5C 152.882,189.371 152.216,192.038 151,194.5C 150.501,198.821 150.334,203.154 150.5,207.5C 149.526,206.365 148.359,205.365 147,204.5C 146.747,207.79 145.747,210.79 144,213.5C 143.667,213.167 143.333,212.833 143,212.5C 137.607,214.512 132.44,216.845 127.5,219.5C 127.739,221.467 127.406,223.301 126.5,225C 121.758,226.428 117.425,228.594 113.5,231.5C 112.914,231.291 112.414,230.957 112,230.5C 111.581,234.852 110.914,235.185 110,231.5C 109.667,233.833 109.333,236.167 109,238.5C 106.925,239.895 105.092,239.562 103.5,237.5C 102.682,234.893 102.182,232.226 102,229.5C 101.667,230.833 101.333,232.167 101,233.5C 100.667,230.5 100.333,227.5 100,224.5C 98.9176,237.479 98.4176,250.479 98.5,263.5C 98.5,266.167 98.5,268.833 98.5,271.5C 98.5,273.833 98.5,276.167 98.5,278.5C 98.1667,278.5 97.8333,278.5 97.5,278.5C 97.5,260.167 97.5,241.833 97.5,223.5C 113.147,204.479 132.147,189.479 154.5,178.5 Z"/></g>
<g><path style="opacity:1" fill="#7e70af" d="M 111.5,188.5 C 106.527,192.806 101.86,197.473 97.5,202.5C 96.8333,202.5 96.1667,202.5 95.5,202.5C 99.9396,196.722 105.273,192.055 111.5,188.5 Z"/></g>
<g><path style="opacity:1" fill="#3cccce" d="M 282.5,177.5 C 283.167,177.5 283.833,177.5 284.5,177.5C 287.037,180.541 289.703,183.541 292.5,186.5C 293.939,184.64 295.605,182.973 297.5,181.5C 299.772,182.441 301.772,183.774 303.5,185.5C 313.413,186.385 323.246,187.719 333,189.5C 338.777,189.096 344.611,189.096 350.5,189.5C 350.491,191.308 350.991,192.975 352,194.5C 352.333,194.167 352.667,193.833 353,193.5C 353.667,196.167 354.333,196.167 355,193.5C 355.186,196.036 355.686,198.369 356.5,200.5C 356.5,202.833 356.5,205.167 356.5,207.5C 355.057,211.142 353.224,214.809 351,218.5C 350.51,219.793 350.343,221.127 350.5,222.5C 331.762,221.314 313.096,219.481 294.5,217C 291.385,216.276 288.718,214.776 286.5,212.5C 287.63,211.378 288.297,210.044 288.5,208.5C 290.269,202.277 290.769,195.943 290,189.5C 289.119,186.986 287.619,184.986 285.5,183.5C 285.573,181.973 284.906,180.973 283.5,180.5C 283.443,179.391 283.11,178.391 282.5,177.5 Z"/></g>
<g><path style="opacity:1" fill="#55b8cf" d="M 212.5,159.5 C 211.756,163.119 211.423,166.785 211.5,170.5C 209.674,191.444 209.008,212.444 209.5,233.5C 208.596,232.791 208.263,231.791 208.5,230.5C 208.5,217.833 208.5,205.167 208.5,192.5C 208.5,192.167 208.5,191.833 208.5,191.5C 208.297,181.08 209.13,170.747 211,160.5C 211.383,159.944 211.883,159.611 212.5,159.5 Z"/></g>
<g><path style="opacity:1" fill="#2dc3c7" d="M 208.5,192.5 C 208.5,205.167 208.5,217.833 208.5,230.5C 207.732,231.263 207.232,232.263 207,233.5C 199.86,231.897 192.527,230.563 185,229.5C 182.065,231.192 178.898,231.858 175.5,231.5C 175.5,230.167 175.5,228.833 175.5,227.5C 169.907,227.193 164.407,227.527 159,228.5C 159.374,226.231 159.374,223.898 159,221.5C 158.026,223.878 157.359,223.544 157,220.5C 156.751,221.624 156.251,222.624 155.5,223.5C 154.185,218.014 154.185,212.68 155.5,207.5C 157.094,204.939 158.094,201.939 158.5,198.5C 161.308,199.97 164.308,200.803 167.5,201C 180.477,202.915 193.477,204.248 206.5,205C 207.14,200.732 207.807,196.565 208.5,192.5 Z"/></g>
<g><path style="opacity:1" fill="#8535ad" d="M 365.5,169.5 C 370.238,177.9 372.905,187.066 373.5,197C 373.346,199.379 372.68,201.546 371.5,203.5C 371.846,204.696 372.346,204.696 373,203.5C 372.826,207.359 373.159,211.359 374,215.5C 374.317,213.699 374.984,213.366 376,214.5C 381.063,211.714 383.563,207.38 383.5,201.5C 387.846,201.666 392.179,201.499 396.5,201C 397.025,200.308 397.692,199.808 398.5,199.5C 399.258,200.811 400.258,201.311 401.5,201C 400.366,199.984 400.699,199.317 402.5,199C 402.034,195.698 402.034,192.531 402.5,189.5C 404.772,189.911 405.105,191.078 403.5,193C 403.63,194.059 404.13,194.892 405,195.5C 406.506,192.526 408.172,192.193 410,194.5C 410.201,197.282 409.368,199.782 407.5,202C 407.862,203.434 408.528,204.601 409.5,205.5C 407.394,206.783 405.06,207.616 402.5,208C 400.833,211.048 399.166,214.048 397.5,217C 395.421,217.808 393.421,217.641 391.5,216.5C 392.833,215.833 394.167,215.167 395.5,214.5C 391.878,213.341 388.211,213.175 384.5,214C 383.529,219.072 383.195,224.238 383.5,229.5C 378.056,229.461 372.723,230.127 367.5,231.5C 367.162,233.854 366.662,236.187 366,238.5C 363.099,232.958 361.599,233.292 361.5,239.5C 366.386,238.405 368.052,240.072 366.5,244.5C 365.689,242.609 364.356,241.276 362.5,240.5C 361.614,241.325 361.281,242.325 361.5,243.5C 360.5,243.5 359.5,243.5 358.5,243.5C 358.5,244.5 358.5,245.5 358.5,246.5C 357.325,246.281 356.325,246.614 355.5,247.5C 355.147,251.187 353.147,253.187 349.5,253.5C 368.537,228.438 373.871,200.438 365.5,169.5 Z"/></g>
<g><path style="opacity:1" fill="#63a8d2" d="M 285.5,183.5 C 287.619,184.986 289.119,186.986 290,189.5C 290.769,195.943 290.269,202.277 288.5,208.5C 287.5,209.167 286.5,209.833 285.5,210.5C 289.355,201.486 289.355,192.486 285.5,183.5 Z"/></g>
<g><path style="opacity:1" fill="#b954cf" d="M 150.5,207.5 C 148.775,214.349 148.109,221.349 148.5,228.5C 147.837,226.958 147.17,225.291 146.5,223.5C 145.828,226.897 144.995,230.23 144,233.5C 141.379,233.296 138.545,233.296 135.5,233.5C 135.719,234.675 135.386,235.675 134.5,236.5C 126.676,240.488 119.176,244.821 112,249.5C 111.667,247.167 111.333,244.833 111,242.5C 110.654,245.576 109.988,248.576 109,251.5C 107.605,252.815 106.605,252.481 106,250.5C 105,257.167 104,257.167 103,250.5C 102.135,255.912 100.635,260.246 98.5,263.5C 98.4176,250.479 98.9176,237.479 100,224.5C 100.333,227.5 100.667,230.5 101,233.5C 101.333,232.167 101.667,230.833 102,229.5C 102.182,232.226 102.682,234.893 103.5,237.5C 105.092,239.562 106.925,239.895 109,238.5C 109.333,236.167 109.667,233.833 110,231.5C 110.914,235.185 111.581,234.852 112,230.5C 112.414,230.957 112.914,231.291 113.5,231.5C 117.425,228.594 121.758,226.428 126.5,225C 127.406,223.301 127.739,221.467 127.5,219.5C 132.44,216.845 137.607,214.512 143,212.5C 143.333,212.833 143.667,213.167 144,213.5C 145.747,210.79 146.747,207.79 147,204.5C 148.359,205.365 149.526,206.365 150.5,207.5 Z"/></g>
<g><path style="opacity:1" fill="#7f30aa" d="M 409.5,205.5 C 411.814,206.179 412.147,207.512 410.5,209.5C 410.914,211.919 411.914,213.919 413.5,215.5C 413.292,217.92 413.626,220.253 414.5,222.5C 412.541,226.96 409.207,229.793 404.5,231C 402.866,231.494 401.199,231.66 399.5,231.5C 399.719,232.675 399.386,233.675 398.5,234.5C 393.791,236.382 389.791,239.215 386.5,243C 381.098,245.768 375.764,248.768 370.5,252C 368.26,252.977 365.927,253.477 363.5,253.5C 363.822,255.722 363.155,257.556 361.5,259C 357.952,259.441 354.952,260.941 352.5,263.5C 351.833,262.833 351.167,262.167 350.5,261.5C 349.248,263.001 348.248,264.668 347.5,266.5C 345.696,267.768 343.696,268.435 341.5,268.5C 341.5,269.5 341.5,270.5 341.5,271.5C 339.692,271.491 338.025,271.991 336.5,273C 330.984,276.373 325.651,279.873 320.5,283.5C 317.515,281.258 314.515,281.091 311.5,283C 314.419,284.754 316.419,287.254 317.5,290.5C 317,290.833 316.5,291.167 316,291.5C 314.48,290.303 313.313,288.803 312.5,287C 311.552,286.517 310.552,286.351 309.5,286.5C 309.737,287.791 309.404,288.791 308.5,289.5C 305.834,287.446 303.334,285.113 301,282.5C 300.506,280.866 300.34,279.199 300.5,277.5C 303.867,277.543 307.201,277.21 310.5,276.5C 315.515,273.83 320.848,271.997 326.5,271C 334.586,265.634 342.253,259.801 349.5,253.5C 353.147,253.187 355.147,251.187 355.5,247.5C 356.325,246.614 357.325,246.281 358.5,246.5C 358.5,245.5 358.5,244.5 358.5,243.5C 359.5,243.5 360.5,243.5 361.5,243.5C 361.281,242.325 361.614,241.325 362.5,240.5C 364.356,241.276 365.689,242.609 366.5,244.5C 368.052,240.072 366.386,238.405 361.5,239.5C 361.599,233.292 363.099,232.958 366,238.5C 366.662,236.187 367.162,233.854 367.5,231.5C 372.723,230.127 378.056,229.461 383.5,229.5C 383.195,224.238 383.529,219.072 384.5,214C 388.211,213.175 391.878,213.341 395.5,214.5C 394.167,215.167 392.833,215.833 391.5,216.5C 393.421,217.641 395.421,217.808 397.5,217C 399.166,214.048 400.833,211.048 402.5,208C 405.06,207.616 407.394,206.783 409.5,205.5 Z"/></g>
<g><path style="opacity:1" fill="#150f4f" d="M 95.5,203.5 C 96.4907,209.979 96.824,216.646 96.5,223.5C 94.3752,229.476 91.5419,235.143 88,240.5C 87.5539,243.343 87.0539,246.176 86.5,249C 87.3415,254.219 88.3415,259.386 89.5,264.5C 88.6554,263.329 87.9887,261.995 87.5,260.5C 85.4786,252.465 84.1453,244.298 83.5,236C 84.917,229.502 86.2503,223.002 87.5,216.5C 89.3815,211.632 92.0482,207.299 95.5,203.5 Z"/></g>
<g><path style="opacity:1" fill="#7855a5" d="M 211.5,170.5 C 211.833,170.5 212.167,170.5 212.5,170.5C 212.5,188.833 212.5,207.167 212.5,225.5C 213.5,225.5 214.5,225.5 215.5,225.5C 214.551,227.737 213.884,230.071 213.5,232.5C 215.5,232.5 217.5,232.5 219.5,232.5C 228.2,232.711 236.867,232.377 245.5,231.5C 245.082,232.222 244.416,232.722 243.5,233C 232.117,234.489 220.784,234.655 209.5,233.5C 209.008,212.444 209.674,191.444 211.5,170.5 Z"/></g>
<g><path style="opacity:1" fill="#9a68c8" d="M 154.5,185.5 C 153.838,189.466 153.505,193.466 153.5,197.5C 151.491,205.911 150.491,214.578 150.5,223.5C 149.833,228.833 149.167,234.167 148.5,239.5C 148.5,235.833 148.5,232.167 148.5,228.5C 148.109,221.349 148.775,214.349 150.5,207.5C 150.334,203.154 150.501,198.821 151,194.5C 152.216,192.038 152.882,189.371 153,186.5C 153.383,185.944 153.883,185.611 154.5,185.5 Z"/></g>
<g><path style="opacity:1" fill="#58a7d0" d="M 281.5,215.5 C 281.703,217.39 281.037,218.89 279.5,220C 277.114,221.193 274.78,222.36 272.5,223.5C 275.729,221.058 278.729,218.392 281.5,215.5 Z"/></g>
<g><path style="opacity:1" fill="#7a2ca6" d="M 413.5,215.5 C 414.768,217.905 415.435,220.572 415.5,223.5C 415.683,230.868 415.35,238.201 414.5,245.5C 410.753,246.081 407.086,247.081 403.5,248.5C 397.439,252.886 391.106,256.886 384.5,260.5C 383.614,261.325 383.281,262.325 383.5,263.5C 379.954,263.559 376.621,264.392 373.5,266C 367.406,270.581 361.406,275.415 355.5,280.5C 353.994,281.747 352.494,281.747 351,280.5C 345.694,283.229 340.861,286.562 336.5,290.5C 335.614,291.325 335.281,292.325 335.5,293.5C 328.335,293.498 322.835,296.498 319,302.5C 315.864,299.699 312.697,297.032 309.5,294.5C 308.962,292.883 308.629,291.216 308.5,289.5C 309.404,288.791 309.737,287.791 309.5,286.5C 310.552,286.351 311.552,286.517 312.5,287C 313.313,288.803 314.48,290.303 316,291.5C 316.5,291.167 317,290.833 317.5,290.5C 316.419,287.254 314.419,284.754 311.5,283C 314.515,281.091 317.515,281.258 320.5,283.5C 325.651,279.873 330.984,276.373 336.5,273C 338.025,271.991 339.692,271.491 341.5,271.5C 341.5,270.5 341.5,269.5 341.5,268.5C 343.696,268.435 345.696,267.768 347.5,266.5C 348.248,264.668 349.248,263.001 350.5,261.5C 351.167,262.167 351.833,262.833 352.5,263.5C 354.952,260.941 357.952,259.441 361.5,259C 363.155,257.556 363.822,255.722 363.5,253.5C 365.927,253.477 368.26,252.977 370.5,252C 375.764,248.768 381.098,245.768 386.5,243C 389.791,239.215 393.791,236.382 398.5,234.5C 399.386,233.675 399.719,232.675 399.5,231.5C 401.199,231.66 402.866,231.494 404.5,231C 409.207,229.793 412.541,226.96 414.5,222.5C 413.626,220.253 413.292,217.92 413.5,215.5 Z"/></g>
<g><path style="opacity:1" fill="#5097bd" d="M 153.5,197.5 C 152.854,206.152 152.521,214.818 152.5,223.5C 151.833,223.5 151.167,223.5 150.5,223.5C 150.491,214.578 151.491,205.911 153.5,197.5 Z"/></g>
<g><path style="opacity:1" fill="#31c3c8" d="M 356.5,207.5 C 354.87,216.77 351.537,225.437 346.5,233.5C 344.138,237.522 341.138,240.856 337.5,243.5C 336.469,242.751 335.302,242.085 334,241.5C 333.383,240.551 333.549,239.718 334.5,239C 332.045,237.369 329.545,237.203 327,238.5C 324.247,236.929 321.414,236.596 318.5,237.5C 310.929,236.021 303.262,235.021 295.5,234.5C 298.107,233.682 300.774,233.182 303.5,233C 298.417,232.574 293.417,231.74 288.5,230.5C 287.532,231.489 286.365,232.156 285,232.5C 279.461,231.896 273.961,231.063 268.5,230C 267.748,229.329 267.414,228.496 267.5,227.5C 268.568,226.566 269.901,226.232 271.5,226.5C 271.5,225.5 271.5,224.5 271.5,223.5C 271.833,223.5 272.167,223.5 272.5,223.5C 274.78,222.36 277.114,221.193 279.5,220C 281.037,218.89 281.703,217.39 281.5,215.5C 282.833,213.833 284.167,212.167 285.5,210.5C 286.5,209.833 287.5,209.167 288.5,208.5C 288.297,210.044 287.63,211.378 286.5,212.5C 288.718,214.776 291.385,216.276 294.5,217C 313.096,219.481 331.762,221.314 350.5,222.5C 350.343,221.127 350.51,219.793 351,218.5C 353.224,214.809 355.057,211.142 356.5,207.5 Z"/></g>
<g><path style="opacity:1" fill="#0f2e5e" d="M 87.5,216.5 C 86.2503,223.002 84.917,229.502 83.5,236C 84.1453,244.298 85.4786,252.465 87.5,260.5C 81.9638,247.546 81.2971,234.213 85.5,220.5C 85.6596,218.847 86.3263,217.514 87.5,216.5 Z"/></g>
<g><path style="opacity:1" fill="#5b96c8" d="M 271.5,223.5 C 271.5,224.5 271.5,225.5 271.5,226.5C 269.901,226.232 268.568,226.566 267.5,227.5C 265.079,227.878 262.746,228.545 260.5,229.5C 260.5,229.167 260.5,228.833 260.5,228.5C 263.893,226.39 267.56,224.723 271.5,223.5 Z"/></g>
<g><path style="opacity:1" fill="#8b3ca2" d="M 213.5,167.5 C 213.236,174.89 213.57,182.223 214.5,189.5C 214.334,195.509 214.501,201.509 215,207.5C 216.884,212.699 218.051,218.032 218.5,223.5C 218.704,226.518 219.037,229.518 219.5,232.5C 217.5,232.5 215.5,232.5 213.5,232.5C 213.884,230.071 214.551,227.737 215.5,225.5C 214.5,225.5 213.5,225.5 212.5,225.5C 212.5,207.167 212.5,188.833 212.5,170.5C 212.263,169.209 212.596,168.209 213.5,167.5 Z"/></g>
<g><path style="opacity:1" fill="#7665ba" d="M 260.5,228.5 C 260.5,228.833 260.5,229.167 260.5,229.5C 260.167,229.5 259.833,229.5 259.5,229.5C 255.952,230.702 252.285,231.369 248.5,231.5C 252.112,229.385 256.112,228.385 260.5,228.5 Z"/></g>
<g><path style="opacity:1" fill="#24b8c2" d="M 155.5,181.5 C 155.833,181.5 156.167,181.5 156.5,181.5C 155.917,190.155 155.584,198.822 155.5,207.5C 154.185,212.68 154.185,218.014 155.5,223.5C 156.251,222.624 156.751,221.624 157,220.5C 157.359,223.544 158.026,223.878 159,221.5C 159.374,223.898 159.374,226.231 159,228.5C 164.407,227.527 169.907,227.193 175.5,227.5C 175.5,228.833 175.5,230.167 175.5,231.5C 178.898,231.858 182.065,231.192 185,229.5C 192.527,230.563 199.86,231.897 207,233.5C 207.232,232.263 207.732,231.263 208.5,230.5C 208.263,231.791 208.596,232.791 209.5,233.5C 220.784,234.655 232.117,234.489 243.5,233C 244.416,232.722 245.082,232.222 245.5,231.5C 246.5,231.5 247.5,231.5 248.5,231.5C 252.285,231.369 255.952,230.702 259.5,229.5C 256.983,231.735 253.983,233.235 250.5,234C 238.883,235.577 227.216,236.411 215.5,236.5C 215.238,237.978 215.571,239.311 216.5,240.5C 218.167,239.5 219.833,238.5 221.5,237.5C 232.328,240.564 243.662,241.897 255.5,241.5C 255.5,242.833 255.5,244.167 255.5,245.5C 271.603,246.883 287.603,248.216 303.5,249.5C 303.5,250.833 303.5,252.167 303.5,253.5C 310.879,253.485 318.212,253.652 325.5,254C 324.007,252.844 324.174,252.01 326,251.5C 327.567,250.144 329.4,249.477 331.5,249.5C 331.5,250.167 331.5,250.833 331.5,251.5C 328.031,254.072 324.364,256.406 320.5,258.5C 317.159,259.005 313.826,259.172 310.5,259C 311.696,258.346 311.696,257.846 310.5,257.5C 304.461,261.752 297.795,263.919 290.5,264C 293.071,263.099 295.404,261.766 297.5,260C 291.507,260.132 285.507,260.132 279.5,260C 281.833,259.667 284.167,259.333 286.5,259C 281.5,258.667 276.5,258.333 271.5,258C 268.881,257.849 266.547,257.015 264.5,255.5C 260.749,257.497 256.749,257.997 252.5,257C 247.563,255.915 242.563,255.248 237.5,255C 236.672,254.085 235.672,253.419 234.5,253C 228.167,252.667 221.833,252.333 215.5,252C 213.129,251.265 210.795,250.432 208.5,249.5C 204.223,250.606 199.89,250.772 195.5,250C 199.313,248.738 203.313,248.071 207.5,248C 194.683,248.135 182.016,246.969 169.5,244.5C 165.462,245.649 161.462,245.816 157.5,245C 155.894,247.748 155.061,250.915 155,254.5C 154.743,244.108 153.91,233.774 152.5,223.5C 152.521,214.818 152.854,206.152 153.5,197.5C 153.505,193.466 153.838,189.466 154.5,185.5C 155.434,184.432 155.768,183.099 155.5,181.5 Z"/></g>
<g><path style="opacity:1" fill="#75459a" d="M 95.5,203.5 C 95.5,203.167 95.5,202.833 95.5,202.5C 96.1667,202.5 96.8333,202.5 97.5,202.5C 97.5,209.5 97.5,216.5 97.5,223.5C 97.5,241.833 97.5,260.167 97.5,278.5C 97.5,308.833 97.5,339.167 97.5,369.5C 96.5019,339.338 96.1685,309.005 96.5,278.5C 96.5,260.167 96.5,241.833 96.5,223.5C 96.824,216.646 96.4907,209.979 95.5,203.5 Z"/></g>
<g><path style="opacity:1" fill="#25bdc3" d="M 267.5,227.5 C 267.414,228.496 267.748,229.329 268.5,230C 273.961,231.063 279.461,231.896 285,232.5C 286.365,232.156 287.532,231.489 288.5,230.5C 293.417,231.74 298.417,232.574 303.5,233C 300.774,233.182 298.107,233.682 295.5,234.5C 303.262,235.021 310.929,236.021 318.5,237.5C 321.414,236.596 324.247,236.929 327,238.5C 329.545,237.203 332.045,237.369 334.5,239C 333.549,239.718 333.383,240.551 334,241.5C 335.302,242.085 336.469,242.751 337.5,243.5C 336.5,246.5 334.5,248.5 331.5,249.5C 329.4,249.477 327.567,250.144 326,251.5C 324.174,252.01 324.007,252.844 325.5,254C 318.212,253.652 310.879,253.485 303.5,253.5C 303.5,252.167 303.5,250.833 303.5,249.5C 287.603,248.216 271.603,246.883 255.5,245.5C 255.5,244.167 255.5,242.833 255.5,241.5C 243.662,241.897 232.328,240.564 221.5,237.5C 219.833,238.5 218.167,239.5 216.5,240.5C 215.571,239.311 215.238,237.978 215.5,236.5C 227.216,236.411 238.883,235.577 250.5,234C 253.983,233.235 256.983,231.735 259.5,229.5C 259.833,229.5 260.167,229.5 260.5,229.5C 262.746,228.545 265.079,227.878 267.5,227.5 Z"/></g>
<g><path style="opacity:1" fill="#b150cb" d="M 148.5,228.5 C 148.5,232.167 148.5,235.833 148.5,239.5C 148.167,239.5 147.833,239.5 147.5,239.5C 146.508,247.316 146.174,255.316 146.5,263.5C 146.167,263.5 145.833,263.5 145.5,263.5C 145.927,260.086 144.927,257.252 142.5,255C 143.554,253.612 143.72,252.112 143,250.5C 140.571,251.029 138.738,252.363 137.5,254.5C 138.729,255.281 140.062,255.781 141.5,256C 131.185,258.362 121.519,262.529 112.5,268.5C 111.702,266.922 111.202,265.256 111,263.5C 111.048,267.521 110.048,271.187 108,274.5C 107.692,273.692 107.192,273.025 106.5,272.5C 105.833,275.167 105.167,277.833 104.5,280.5C 103.833,277.5 103.167,274.5 102.5,271.5C 101.522,271.977 100.689,272.643 100,273.5C 99.7216,272.584 99.2216,271.918 98.5,271.5C 98.5,268.833 98.5,266.167 98.5,263.5C 100.635,260.246 102.135,255.912 103,250.5C 104,257.167 105,257.167 106,250.5C 106.605,252.481 107.605,252.815 109,251.5C 109.988,248.576 110.654,245.576 111,242.5C 111.333,244.833 111.667,247.167 112,249.5C 119.176,244.821 126.676,240.488 134.5,236.5C 135.386,235.675 135.719,234.675 135.5,233.5C 138.545,233.296 141.379,233.296 144,233.5C 144.995,230.23 145.828,226.897 146.5,223.5C 147.17,225.291 147.837,226.958 148.5,228.5 Z"/></g>
<g><path style="opacity:1" fill="#692593" d="M 399.5,184.5 C 413.833,191.5 424.5,202.167 431.5,216.5C 431.643,220.236 432.643,223.736 434.5,227C 432.828,231.74 433.162,236.24 435.5,240.5C 437.102,239.45 437.935,240.117 438,242.5C 438.667,247.167 438.667,251.833 438,256.5C 436.768,259.3 436.101,262.3 436,265.5C 435.239,260.263 433.239,255.596 430,251.5C 429.5,252.667 428.667,253.5 427.5,254C 428.86,255.938 428.527,257.604 426.5,259C 424.833,259.333 423.167,259.667 421.5,260C 419.033,262.73 416.367,265.23 413.5,267.5C 414.908,263.314 415.575,258.981 415.5,254.5C 416.575,244.006 416.575,233.673 415.5,223.5C 415.435,220.572 414.768,217.905 413.5,215.5C 411.914,213.919 410.914,211.919 410.5,209.5C 412.147,207.512 411.814,206.179 409.5,205.5C 408.528,204.601 407.862,203.434 407.5,202C 409.368,199.782 410.201,197.282 410,194.5C 408.172,192.193 406.506,192.526 405,195.5C 404.13,194.892 403.63,194.059 403.5,193C 405.105,191.078 404.772,189.911 402.5,189.5C 401.925,187.589 400.925,185.922 399.5,184.5 Z"/></g>
<g><path style="opacity:1" fill="#20b0c2" d="M 150.5,223.5 C 151.167,223.5 151.833,223.5 152.5,223.5C 153.91,233.774 154.743,244.108 155,254.5C 155.061,250.915 155.894,247.748 157.5,245C 161.462,245.816 165.462,245.649 169.5,244.5C 182.016,246.969 194.683,248.135 207.5,248C 203.313,248.071 199.313,248.738 195.5,250C 199.89,250.772 204.223,250.606 208.5,249.5C 210.795,250.432 213.129,251.265 215.5,252C 221.833,252.333 228.167,252.667 234.5,253C 235.672,253.419 236.672,254.085 237.5,255C 242.563,255.248 247.563,255.915 252.5,257C 256.749,257.997 260.749,257.497 264.5,255.5C 266.547,257.015 268.881,257.849 271.5,258C 276.5,258.333 281.5,258.667 286.5,259C 284.167,259.333 281.833,259.667 279.5,260C 285.507,260.132 291.507,260.132 297.5,260C 295.404,261.766 293.071,263.099 290.5,264C 297.795,263.919 304.461,261.752 310.5,257.5C 311.696,257.846 311.696,258.346 310.5,259C 313.826,259.172 317.159,259.005 320.5,258.5C 318.436,260.589 316.103,262.256 313.5,263.5C 312.167,263.833 310.833,264.167 309.5,264.5C 305.609,265.502 301.609,266.335 297.5,267C 297.833,267.333 298.167,267.667 298.5,268C 289.964,269.561 281.464,271.061 273,272.5C 271.421,270.959 269.587,269.792 267.5,269C 263.943,268.402 260.443,267.569 257,266.5C 253.211,267.562 249.377,267.729 245.5,267C 238.211,265.737 230.878,264.737 223.5,264C 221.616,263.784 219.949,263.117 218.5,262C 209.833,261.667 201.167,261.333 192.5,261C 186.43,260.082 180.43,258.582 174.5,256.5C 172.705,257.265 170.872,257.932 169,258.5C 166.065,256.808 162.898,256.142 159.5,256.5C 158.605,249.943 157.605,249.943 156.5,256.5C 154.885,255.846 153.218,255.346 151.5,255C 150.565,252.619 150.232,250.119 150.5,247.5C 150.5,239.5 150.5,231.5 150.5,223.5 Z"/></g>
<g><path style="opacity:1" fill="#7228a2" d="M 415.5,223.5 C 416.575,233.673 416.575,244.006 415.5,254.5C 414.542,254.953 413.708,255.619 413,256.5C 412.667,256.167 412.333,255.833 412,255.5C 410.997,260.504 409.163,265.171 406.5,269.5C 400.173,272.965 393.84,276.632 387.5,280.5C 388.376,281.251 389.376,281.751 390.5,282C 388.254,283.039 386.087,284.206 384,285.5C 383.646,283.193 382.646,282.859 381,284.5C 371.809,290.519 362.309,296.186 352.5,301.5C 351.094,302.951 349.594,304.284 348,305.5C 347.383,306.449 347.549,307.282 348.5,308C 346.572,310.455 344.738,310.622 343,308.5C 340.302,310.404 337.302,311.737 334,312.5C 332.743,312.15 332.409,311.483 333,310.5C 339.294,306.177 338.96,305.177 332,307.5C 330.416,307.012 329.249,306.012 328.5,304.5C 325.994,306.567 323.327,306.901 320.5,305.5C 315.833,302.833 312.167,299.167 309.5,294.5C 312.697,297.032 315.864,299.699 319,302.5C 322.835,296.498 328.335,293.498 335.5,293.5C 335.281,292.325 335.614,291.325 336.5,290.5C 340.861,286.562 345.694,283.229 351,280.5C 352.494,281.747 353.994,281.747 355.5,280.5C 361.406,275.415 367.406,270.581 373.5,266C 376.621,264.392 379.954,263.559 383.5,263.5C 383.281,262.325 383.614,261.325 384.5,260.5C 391.106,256.886 397.439,252.886 403.5,248.5C 407.086,247.081 410.753,246.081 414.5,245.5C 415.35,238.201 415.683,230.868 415.5,223.5 Z"/></g>
<g><path style="opacity:1" fill="#3daec6" d="M 85.5,220.5 C 81.2971,234.213 81.9638,247.546 87.5,260.5C 87.9887,261.995 88.6554,263.329 89.5,264.5C 90.7541,268.176 92.4207,271.676 94.5,275C 94.2716,275.399 93.9382,275.565 93.5,275.5C 84.3319,266.663 76.6652,256.663 70.5,245.5C 71.1577,244.602 71.8243,243.602 72.5,242.5C 73.1872,244.555 74.3539,246.221 76,247.5C 77.4342,244.213 77.7676,240.547 77,236.5C 77.414,236.043 77.914,235.709 78.5,235.5C 79.2811,236.729 79.7811,238.062 80,239.5C 80.1169,233.602 81.2836,227.935 83.5,222.5C 83.7472,221.287 84.4138,220.62 85.5,220.5 Z"/></g>
<g><path style="opacity:1" fill="#a94ac5" d="M 145.5,263.5 C 145.666,271.174 145.5,278.841 145,286.5C 144.667,286.833 144.333,287.167 144,287.5C 143.51,286.207 143.343,284.873 143.5,283.5C 139.845,284.64 136.845,286.807 134.5,290C 132.26,290.977 129.927,291.477 127.5,291.5C 127.5,292.833 127.5,294.167 127.5,295.5C 125.143,295.337 122.81,295.503 120.5,296C 117.6,298.715 114.267,300.881 110.5,302.5C 109.964,304.969 108.964,307.136 107.5,309C 108.022,309.561 108.355,310.228 108.5,311C 106.324,326.494 105.158,326.328 105,310.5C 104.667,310.833 104.333,311.167 104,311.5C 103.185,309.377 102.185,307.377 101,305.5C 100.764,307.119 99.9311,308.119 98.5,308.5C 98.5,298.5 98.5,288.5 98.5,278.5C 98.5,276.167 98.5,273.833 98.5,271.5C 99.2216,271.918 99.7216,272.584 100,273.5C 100.689,272.643 101.522,271.977 102.5,271.5C 103.167,274.5 103.833,277.5 104.5,280.5C 105.167,277.833 105.833,275.167 106.5,272.5C 107.192,273.025 107.692,273.692 108,274.5C 110.048,271.187 111.048,267.521 111,263.5C 111.202,265.256 111.702,266.922 112.5,268.5C 121.519,262.529 131.185,258.362 141.5,256C 140.062,255.781 138.729,255.281 137.5,254.5C 138.738,252.363 140.571,251.029 143,250.5C 143.72,252.112 143.554,253.612 142.5,255C 144.927,257.252 145.927,260.086 145.5,263.5 Z"/></g>
<g><path style="opacity:1" fill="#1d1161" d="M 96.5,223.5 C 96.5,241.833 96.5,260.167 96.5,278.5C 95.1667,277.833 94.1667,276.833 93.5,275.5C 93.9382,275.565 94.2716,275.399 94.5,275C 92.4207,271.676 90.7541,268.176 89.5,264.5C 88.3415,259.386 87.3415,254.219 86.5,249C 87.0539,246.176 87.5539,243.343 88,240.5C 91.5419,235.143 94.3752,229.476 96.5,223.5 Z"/></g>
<g><path style="opacity:1" fill="#504990" d="M 331.5,251.5 C 330.19,253.148 328.857,254.814 327.5,256.5C 327.709,257.086 328.043,257.586 328.5,258C 326.5,258.333 324.5,258.667 322.5,259C 320.286,262.107 317.286,263.607 313.5,263.5C 316.103,262.256 318.436,260.589 320.5,258.5C 324.364,256.406 328.031,254.072 331.5,251.5 Z"/></g>
<g><path style="opacity:1" fill="#1ea9c3" d="M 150.5,247.5 C 150.232,250.119 150.565,252.619 151.5,255C 153.218,255.346 154.885,255.846 156.5,256.5C 157.605,249.943 158.605,249.943 159.5,256.5C 162.898,256.142 166.065,256.808 169,258.5C 170.872,257.932 172.705,257.265 174.5,256.5C 180.43,258.582 186.43,260.082 192.5,261C 201.167,261.333 209.833,261.667 218.5,262C 219.949,263.117 221.616,263.784 223.5,264C 230.878,264.737 238.211,265.737 245.5,267C 249.377,267.729 253.211,267.562 257,266.5C 260.443,267.569 263.943,268.402 267.5,269C 269.587,269.792 271.421,270.959 273,272.5C 281.464,271.061 289.964,269.561 298.5,268C 298.167,267.667 297.833,267.333 297.5,267C 301.609,266.335 305.609,265.502 309.5,264.5C 304.122,266.588 298.789,268.921 293.5,271.5C 281.869,273.292 270.202,274.959 258.5,276.5C 263.373,277.988 268.373,278.822 273.5,279C 281.493,279.5 289.493,279.666 297.5,279.5C 297.146,282.421 298.146,284.754 300.5,286.5C 299.833,286.833 299.167,287.167 298.5,287.5C 294.758,285.917 291.424,283.75 288.5,281C 279.288,281.425 270.121,280.925 261,279.5C 259.605,280.815 258.605,280.481 258,278.5C 257.333,281.167 256.667,281.167 256,278.5C 255.586,278.957 255.086,279.291 254.5,279.5C 252.078,277.35 249.411,277.017 246.5,278.5C 238.94,276.763 231.274,275.763 223.5,275.5C 223.719,276.675 223.386,277.675 222.5,278.5C 219.181,271.499 217.181,271.833 216.5,279.5C 216.167,277.5 215.833,275.5 215.5,273.5C 214.022,273.238 212.689,273.571 211.5,274.5C 211.127,278.771 209.961,282.771 208,286.5C 207.517,285.552 207.351,284.552 207.5,283.5C 196.851,280.823 186.018,279.49 175,279.5C 168.925,279.546 163.091,280.213 157.5,281.5C 157.019,278.478 156.353,275.478 155.5,272.5C 152.678,271.851 150.845,270.185 150,267.5C 149.179,260.654 149.346,253.987 150.5,247.5 Z"/></g>
<g><path style="opacity:1" fill="#4a76b7" d="M 147.5,239.5 C 147.833,239.5 148.167,239.5 148.5,239.5C 148.5,255.5 148.5,271.5 148.5,287.5C 149.167,298.167 149.833,308.833 150.5,319.5C 149.778,314.289 148.945,308.956 148,303.5C 147.5,282.169 147.333,260.836 147.5,239.5 Z"/></g>
<g><path style="opacity:1" fill="#4e4991" d="M 313.5,263.5 C 312.358,265.433 310.692,266.933 308.5,268C 303.8,268.114 299.466,269.281 295.5,271.5C 295.5,272.5 295.5,273.5 295.5,274.5C 294.094,274.027 293.427,273.027 293.5,271.5C 298.789,268.921 304.122,266.588 309.5,264.5C 310.833,264.167 312.167,263.833 313.5,263.5 Z"/></g>
<g><path style="opacity:1" fill="#6c259e" d="M 415.5,254.5 C 415.575,258.981 414.908,263.314 413.5,267.5C 412.833,268.5 412.167,269.5 411.5,270.5C 410.85,270.804 410.183,271.137 409.5,271.5C 408.915,276.349 406.581,280.016 402.5,282.5C 400.589,294.259 399.423,294.259 399,282.5C 394.147,285.098 393.98,286.932 398.5,288C 393.446,289.089 388.446,290.589 383.5,292.5C 379.193,297.328 373.86,300.662 367.5,302.5C 365.439,305.27 362.939,307.604 360,309.5C 359.586,309.043 359.086,308.709 358.5,308.5C 357.369,309.751 356.036,310.751 354.5,311.5C 352.547,310.844 350.547,310.511 348.5,310.5C 347.843,313.841 349.176,315.841 352.5,316.5C 352.192,317.308 351.692,317.975 351,318.5C 349.257,316.372 347.091,315.539 344.5,316C 345.337,317.011 345.67,318.178 345.5,319.5C 344.167,319.5 342.833,319.5 341.5,319.5C 333.631,316.071 326.631,311.404 320.5,305.5C 323.327,306.901 325.994,306.567 328.5,304.5C 329.249,306.012 330.416,307.012 332,307.5C 338.96,305.177 339.294,306.177 333,310.5C 332.409,311.483 332.743,312.15 334,312.5C 337.302,311.737 340.302,310.404 343,308.5C 344.738,310.622 346.572,310.455 348.5,308C 347.549,307.282 347.383,306.449 348,305.5C 349.594,304.284 351.094,302.951 352.5,301.5C 362.309,296.186 371.809,290.519 381,284.5C 382.646,282.859 383.646,283.193 384,285.5C 386.087,284.206 388.254,283.039 390.5,282C 389.376,281.751 388.376,281.251 387.5,280.5C 393.84,276.632 400.173,272.965 406.5,269.5C 409.163,265.171 410.997,260.504 412,255.5C 412.333,255.833 412.667,256.167 413,256.5C 413.708,255.619 414.542,254.953 415.5,254.5 Z"/></g>
<g><path style="opacity:1" fill="#66219a" d="M 411.5,270.5 C 407.287,281.978 402.787,293.311 398,304.5C 391.409,311.483 384.909,318.483 378.5,325.5C 376.191,327.987 373.524,329.987 370.5,331.5C 365.764,330.365 361.097,329.032 356.5,327.5C 351.455,324.826 346.455,322.159 341.5,319.5C 342.833,319.5 344.167,319.5 345.5,319.5C 345.67,318.178 345.337,317.011 344.5,316C 347.091,315.539 349.257,316.372 351,318.5C 351.692,317.975 352.192,317.308 352.5,316.5C 349.176,315.841 347.843,313.841 348.5,310.5C 350.547,310.511 352.547,310.844 354.5,311.5C 356.036,310.751 357.369,309.751 358.5,308.5C 359.086,308.709 359.586,309.043 360,309.5C 362.939,307.604 365.439,305.27 367.5,302.5C 373.86,300.662 379.193,297.328 383.5,292.5C 388.446,290.589 393.446,289.089 398.5,288C 393.98,286.932 394.147,285.098 399,282.5C 399.423,294.259 400.589,294.259 402.5,282.5C 406.581,280.016 408.915,276.349 409.5,271.5C 410.183,271.137 410.85,270.804 411.5,270.5 Z"/></g>
<g><path style="opacity:1" fill="#1ea4c4" d="M 297.5,279.5 C 299.162,282.12 300.828,284.787 302.5,287.5C 302.5,288.833 302.5,290.167 302.5,291.5C 301.622,294.85 300.122,295.183 298,292.5C 297.085,293.328 296.419,294.328 296,295.5C 291.08,294.054 286.08,292.72 281,291.5C 279.208,292.037 277.375,292.37 275.5,292.5C 262.361,290.308 249.194,288.308 236,286.5C 233.657,286.682 231.824,287.682 230.5,289.5C 227.761,287.769 228.094,286.603 231.5,286C 229.19,285.503 226.857,285.337 224.5,285.5C 224.768,287.099 224.434,288.432 223.5,289.5C 221.833,287.5 220.167,285.5 218.5,283.5C 218.473,281.801 217.806,280.467 216.5,279.5C 217.181,271.833 219.181,271.499 222.5,278.5C 223.386,277.675 223.719,276.675 223.5,275.5C 231.274,275.763 238.94,276.763 246.5,278.5C 249.411,277.017 252.078,277.35 254.5,279.5C 255.086,279.291 255.586,278.957 256,278.5C 256.667,281.167 257.333,281.167 258,278.5C 258.605,280.481 259.605,280.815 261,279.5C 270.121,280.925 279.288,281.425 288.5,281C 291.424,283.75 294.758,285.917 298.5,287.5C 299.167,287.167 299.833,286.833 300.5,286.5C 298.146,284.754 297.146,282.421 297.5,279.5 Z"/></g>
<g><path style="opacity:1" fill="#198aa0" d="M 293.5,271.5 C 293.427,273.027 294.094,274.027 295.5,274.5C 296.441,276.05 297.107,277.716 297.5,279.5C 289.493,279.666 281.493,279.5 273.5,279C 268.373,278.822 263.373,277.988 258.5,276.5C 270.202,274.959 281.869,273.292 293.5,271.5 Z"/></g>
<g><path style="opacity:1" fill="#1c9fc5" d="M 216.5,279.5 C 217.806,280.467 218.473,281.801 218.5,283.5C 217.5,282.833 216.5,282.167 215.5,281.5C 215.5,280.833 215.5,280.167 215.5,279.5C 215.585,278.005 214.919,277.005 213.5,276.5C 212.503,283.803 212.169,291.137 212.5,298.5C 210.937,296.383 209.604,294.05 208.5,291.5C 207.281,292.263 206.281,293.263 205.5,294.5C 203.833,293.833 202.167,293.167 200.5,292.5C 197.315,294.037 194.648,293.37 192.5,290.5C 186.896,291.454 181.229,291.788 175.5,291.5C 175.719,290.325 175.386,289.325 174.5,288.5C 168.78,289.241 163.113,289.575 157.5,289.5C 157.5,286.833 157.5,284.167 157.5,281.5C 163.091,280.213 168.925,279.546 175,279.5C 186.018,279.49 196.851,280.823 207.5,283.5C 207.351,284.552 207.517,285.552 208,286.5C 209.961,282.771 211.127,278.771 211.5,274.5C 212.689,273.571 214.022,273.238 215.5,273.5C 215.833,275.5 216.167,277.5 216.5,279.5 Z"/></g>
<g><path style="opacity:1" fill="#1b9fc4" d="M 302.5,291.5 C 307.082,293.404 309.748,296.737 310.5,301.5C 309.5,301.5 308.5,301.5 307.5,301.5C 307.577,304.012 306.577,306.012 304.5,307.5C 301.702,306.047 298.702,305.047 295.5,304.5C 289.613,303.814 283.78,303.147 278,302.5C 274.8,303.817 271.3,303.317 267.5,301C 263.541,301.268 259.541,300.601 255.5,299C 250.499,298.749 245.499,298.916 240.5,299.5C 240.778,297.654 240.111,296.32 238.5,295.5C 237.5,297.167 236.167,298.5 234.5,299.5C 233.378,298.37 232.044,297.703 230.5,297.5C 228.196,294.859 225.862,292.192 223.5,289.5C 224.434,288.432 224.768,287.099 224.5,285.5C 226.857,285.337 229.19,285.503 231.5,286C 228.094,286.603 227.761,287.769 230.5,289.5C 231.824,287.682 233.657,286.682 236,286.5C 249.194,288.308 262.361,290.308 275.5,292.5C 277.375,292.37 279.208,292.037 281,291.5C 286.08,292.72 291.08,294.054 296,295.5C 296.419,294.328 297.085,293.328 298,292.5C 300.122,295.183 301.622,294.85 302.5,291.5 Z"/></g>
<g><path style="opacity:1" fill="#1d8db2" d="M 150.5,223.5 C 150.5,231.5 150.5,239.5 150.5,247.5C 149.346,253.987 149.179,260.654 150,267.5C 150.845,270.185 152.678,271.851 155.5,272.5C 156.353,275.478 157.019,278.478 157.5,281.5C 157.5,284.167 157.5,286.833 157.5,289.5C 157.5,290.833 157.5,292.167 157.5,293.5C 156.883,293.611 156.383,293.944 156,294.5C 155.821,297.553 155.321,300.553 154.5,303.5C 154.353,300.242 153.52,296.909 152,293.5C 151.751,294.624 151.251,295.624 150.5,296.5C 149.833,293.358 149.166,290.358 148.5,287.5C 148.5,271.5 148.5,255.5 148.5,239.5C 149.167,234.167 149.833,228.833 150.5,223.5 Z"/></g>
<g><path style="opacity:1" fill="#5b1d89" d="M 431.5,216.5 C 439.182,231.615 441.349,247.615 438,264.5C 436.439,270.612 434.605,276.612 432.5,282.5C 426.239,292.282 418.572,301.115 409.5,309C 401.355,313.714 393.021,318.047 384.5,322C 383.55,324.91 381.55,326.077 378.5,325.5C 384.909,318.483 391.409,311.483 398,304.5C 402.787,293.311 407.287,281.978 411.5,270.5C 412.167,269.5 412.833,268.5 413.5,267.5C 416.367,265.23 419.033,262.73 421.5,260C 423.167,259.667 424.833,259.333 426.5,259C 428.527,257.604 428.86,255.938 427.5,254C 428.667,253.5 429.5,252.667 430,251.5C 433.239,255.596 435.239,260.263 436,265.5C 436.101,262.3 436.768,259.3 438,256.5C 438.667,251.833 438.667,247.167 438,242.5C 437.935,240.117 437.102,239.45 435.5,240.5C 433.162,236.24 432.828,231.74 434.5,227C 432.643,223.736 431.643,220.236 431.5,216.5 Z"/></g>
<g><path style="opacity:1" fill="#1a99c5" d="M 212.5,298.5 C 212.703,307.539 208.703,310.206 200.5,306.5C 196.256,307.476 192.589,306.309 189.5,303C 183.482,302.358 177.482,302.525 171.5,303.5C 170.167,303.167 168.833,302.833 167.5,302.5C 170.107,301.682 172.774,301.182 175.5,301C 171.833,300.667 168.167,300.333 164.5,300C 164,299.5 163.5,299 163,298.5C 161.989,299.337 160.822,299.67 159.5,299.5C 159.125,297.302 158.458,295.302 157.5,293.5C 157.5,292.167 157.5,290.833 157.5,289.5C 163.113,289.575 168.78,289.241 174.5,288.5C 175.386,289.325 175.719,290.325 175.5,291.5C 181.229,291.788 186.896,291.454 192.5,290.5C 194.648,293.37 197.315,294.037 200.5,292.5C 202.167,293.167 203.833,293.833 205.5,294.5C 206.281,293.263 207.281,292.263 208.5,291.5C 209.604,294.05 210.937,296.383 212.5,298.5 Z"/></g>
<g><path style="opacity:1" fill="#724ab0" d="M 215.5,279.5 C 215.5,280.167 215.5,280.833 215.5,281.5C 218.833,287.833 222.167,294.167 225.5,300.5C 222.606,297.72 219.939,294.72 217.5,291.5C 216.505,296.792 216.172,302.125 216.5,307.5C 216.167,307.5 215.833,307.5 215.5,307.5C 215.624,301.931 214.957,296.598 213.5,291.5C 212.911,287.029 213.577,283.029 215.5,279.5 Z"/></g>
<g><path style="opacity:1" fill="#1a99c5" d="M 310.5,301.5 C 309.826,304.13 310.493,304.13 312.5,301.5C 314.547,304.366 317.214,306.533 320.5,308C 321.343,309.787 321.51,311.62 321,313.5C 323.464,312.474 325.298,313.308 326.5,316C 324.667,317.788 322.667,317.954 320.5,316.5C 319.646,317.522 318.646,318.355 317.5,319C 320.827,319.61 324.161,320.11 327.5,320.5C 327.34,318.801 327.506,317.134 328,315.5C 332.049,316.871 335.883,318.704 339.5,321C 336.106,323.983 332.439,324.149 328.5,321.5C 325.562,322.575 322.562,322.741 319.5,322C 317.866,320.692 316.032,319.858 314,319.5C 312.674,319.755 311.674,320.422 311,321.5C 309.241,319.333 307.074,317.666 304.5,316.5C 303.914,316.709 303.414,317.043 303,317.5C 300.787,316.198 298.454,315.198 296,314.5C 287.936,316.472 279.769,316.805 271.5,315.5C 271.291,314.914 270.957,314.414 270.5,314C 265.511,313.501 260.511,313.334 255.5,313.5C 255.034,311.799 255.034,310.299 255.5,309C 254.407,307.635 253.074,307.301 251.5,308C 252.336,309.243 252.003,310.41 250.5,311.5C 247.904,310.518 245.238,309.851 242.5,309.5C 238.194,305.86 234.194,301.86 230.5,297.5C 232.044,297.703 233.378,298.37 234.5,299.5C 236.167,298.5 237.5,297.167 238.5,295.5C 240.111,296.32 240.778,297.654 240.5,299.5C 245.499,298.916 250.499,298.749 255.5,299C 259.541,300.601 263.541,301.268 267.5,301C 271.3,303.317 274.8,303.817 278,302.5C 283.78,303.147 289.613,303.814 295.5,304.5C 298.702,305.047 301.702,306.047 304.5,307.5C 306.577,306.012 307.577,304.012 307.5,301.5C 308.5,301.5 309.5,301.5 310.5,301.5 Z"/></g>
<g><path style="opacity:1" fill="#1681b3" d="M 148.5,287.5 C 149.166,290.358 149.833,293.358 150.5,296.5C 151.251,295.624 151.751,294.624 152,293.5C 153.52,296.909 154.353,300.242 154.5,303.5C 155.321,300.553 155.821,297.553 156,294.5C 156.383,293.944 156.883,293.611 157.5,293.5C 158.458,295.302 159.125,297.302 159.5,299.5C 159.122,304.234 160.122,308.567 162.5,312.5C 162.5,314.833 162.5,317.167 162.5,319.5C 161.561,323.308 160.228,323.308 158.5,319.5C 157.806,322.597 156.806,322.931 155.5,320.5C 153.955,319.548 152.288,319.215 150.5,319.5C 149.833,308.833 149.167,298.167 148.5,287.5 Z"/></g>
<g><path style="opacity:1" fill="#1992c6" d="M 215.5,279.5 C 213.577,283.029 212.911,287.029 213.5,291.5C 213.9,297.491 214.233,303.491 214.5,309.5C 214.632,313.349 214.132,317.016 213,320.5C 211.676,319.12 210.343,318.786 209,319.5C 200.088,317.511 191.088,316.844 182,317.5C 179.201,316.763 179.034,315.93 181.5,315C 175.641,312.534 169.808,312.368 164,314.5C 163.722,313.584 163.222,312.918 162.5,312.5C 160.122,308.567 159.122,304.234 159.5,299.5C 160.822,299.67 161.989,299.337 163,298.5C 163.5,299 164,299.5 164.5,300C 168.167,300.333 171.833,300.667 175.5,301C 172.774,301.182 170.107,301.682 167.5,302.5C 168.833,302.833 170.167,303.167 171.5,303.5C 177.482,302.525 183.482,302.358 189.5,303C 192.589,306.309 196.256,307.476 200.5,306.5C 208.703,310.206 212.703,307.539 212.5,298.5C 212.169,291.137 212.503,283.803 213.5,276.5C 214.919,277.005 215.585,278.005 215.5,279.5 Z"/></g>
<g><path style="opacity:1" fill="#9a41bc" d="M 145.5,263.5 C 145.833,263.5 146.167,263.5 146.5,263.5C 146.198,278.881 146.531,294.215 147.5,309.5C 148.188,315.696 146.855,321.362 143.5,326.5C 138.208,327.495 132.875,327.828 127.5,327.5C 127.5,330.167 127.5,332.833 127.5,335.5C 124.833,335.5 122.167,335.5 119.5,335.5C 119.5,336.5 119.5,337.5 119.5,338.5C 116.188,339.485 112.854,340.485 109.5,341.5C 109.137,342.183 108.804,342.85 108.5,343.5C 102.777,332.648 99.4438,320.981 98.5,308.5C 99.9311,308.119 100.764,307.119 101,305.5C 102.185,307.377 103.185,309.377 104,311.5C 104.333,311.167 104.667,310.833 105,310.5C 105.158,326.328 106.324,326.494 108.5,311C 108.355,310.228 108.022,309.561 107.5,309C 108.964,307.136 109.964,304.969 110.5,302.5C 114.267,300.881 117.6,298.715 120.5,296C 122.81,295.503 125.143,295.337 127.5,295.5C 127.5,294.167 127.5,292.833 127.5,291.5C 129.927,291.477 132.26,290.977 134.5,290C 136.845,286.807 139.845,284.64 143.5,283.5C 143.343,284.873 143.51,286.207 144,287.5C 144.333,287.167 144.667,286.833 145,286.5C 145.5,278.841 145.666,271.174 145.5,263.5 Z"/></g>
<g><path style="opacity:1" fill="#1a92c5" d="M 302.5,287.5 C 304.605,290.027 306.939,292.36 309.5,294.5C 312.167,299.167 315.833,302.833 320.5,305.5C 326.631,311.404 333.631,316.071 341.5,319.5C 346.455,322.159 351.455,324.826 356.5,327.5C 356.804,328.15 357.137,328.817 357.5,329.5C 361.059,330.142 364.393,331.309 367.5,333C 362.862,336.449 358.029,336.949 353,334.5C 351.7,335.707 350.2,336.374 348.5,336.5C 348.5,335.5 348.5,334.5 348.5,333.5C 340.822,333.848 333.155,334.015 325.5,334C 317.314,331.614 308.981,329.948 300.5,329C 301.167,328.667 301.833,328.333 302.5,328C 301.333,327.833 300.167,327.667 299,327.5C 295.279,328.889 291.446,329.556 287.5,329.5C 287.67,328.178 287.337,327.011 286.5,326C 281.522,326.492 276.522,326.826 271.5,327C 269.117,326.935 268.45,326.102 269.5,324.5C 268.167,323.5 266.833,322.5 265.5,321.5C 263.678,321.463 261.678,321.796 259.5,322.5C 258.448,322.649 257.448,322.483 256.5,322C 251.665,317.997 246.998,313.83 242.5,309.5C 245.238,309.851 247.904,310.518 250.5,311.5C 252.003,310.41 252.336,309.243 251.5,308C 253.074,307.301 254.407,307.635 255.5,309C 255.034,310.299 255.034,311.799 255.5,313.5C 260.511,313.334 265.511,313.501 270.5,314C 270.957,314.414 271.291,314.914 271.5,315.5C 279.769,316.805 287.936,316.472 296,314.5C 298.454,315.198 300.787,316.198 303,317.5C 303.414,317.043 303.914,316.709 304.5,316.5C 307.074,317.666 309.241,319.333 311,321.5C 311.674,320.422 312.674,319.755 314,319.5C 316.032,319.858 317.866,320.692 319.5,322C 322.562,322.741 325.562,322.575 328.5,321.5C 332.439,324.149 336.106,323.983 339.5,321C 335.883,318.704 332.049,316.871 328,315.5C 327.506,317.134 327.34,318.801 327.5,320.5C 324.161,320.11 320.827,319.61 317.5,319C 318.646,318.355 319.646,317.522 320.5,316.5C 322.667,317.954 324.667,317.788 326.5,316C 325.298,313.308 323.464,312.474 321,313.5C 321.51,311.62 321.343,309.787 320.5,308C 317.214,306.533 314.547,304.366 312.5,301.5C 310.493,304.13 309.826,304.13 310.5,301.5C 309.748,296.737 307.082,293.404 302.5,291.5C 302.5,290.167 302.5,288.833 302.5,287.5 Z"/></g>
<g><path style="opacity:1" fill="#1981b2" d="M 215.5,281.5 C 216.5,282.167 217.5,282.833 218.5,283.5C 220.167,285.5 221.833,287.5 223.5,289.5C 225.862,292.192 228.196,294.859 230.5,297.5C 234.194,301.86 238.194,305.86 242.5,309.5C 246.998,313.83 251.665,317.997 256.5,322C 257.448,322.483 258.448,322.649 259.5,322.5C 260.136,324.795 261.469,326.461 263.5,327.5C 262.624,327.369 261.957,327.702 261.5,328.5C 264.196,329.851 266.53,331.684 268.5,334C 267.542,335.147 267.875,336.147 269.5,337C 267.833,339 266.167,339 264.5,337C 265.167,336 265.833,335 266.5,334C 261.026,333.853 255.693,333.02 250.5,331.5C 247.223,327.961 243.723,324.628 240,321.5C 234.879,314.572 230.045,307.572 225.5,300.5C 222.167,294.167 218.833,287.833 215.5,281.5 Z"/></g>
<g><path style="opacity:1" fill="#1f8aae" d="M 432.5,285.5 C 436.854,296.109 438.854,307.275 438.5,319C 438.892,330.1 436.892,340.6 432.5,350.5C 432.682,348.409 432.348,346.409 431.5,344.5C 432.274,343.289 433.107,343.289 434,344.5C 434.453,340.823 434.286,337.156 433.5,333.5C 433.649,331.68 434.316,330.18 435.5,329C 433.508,328.426 432.008,327.259 431,325.5C 430.693,328.876 428.86,330.21 425.5,329.5C 425.719,328.325 425.386,327.325 424.5,326.5C 423.264,327.246 421.93,327.579 420.5,327.5C 420.435,330.998 419.101,331.498 416.5,329C 418.667,326.833 420.833,324.667 423,322.5C 423.483,321.552 423.649,320.552 423.5,319.5C 430.537,309.345 433.537,298.012 432.5,285.5 Z"/></g>
<g><path style="opacity:1" fill="#1788c6" d="M 213.5,291.5 C 214.957,296.598 215.624,301.931 215.5,307.5C 216.334,317.502 216.834,327.502 217,337.5C 216.667,337.167 216.333,336.833 216,336.5C 215.751,337.624 215.251,338.624 214.5,339.5C 212.899,340.165 211.399,340.499 210,340.5C 209.28,338.888 209.446,337.388 210.5,336C 209.333,335.833 208.167,335.667 207,335.5C 199.945,336.055 192.445,336.055 184.5,335.5C 180.749,335.277 177.249,335.943 174,337.5C 172.306,335.571 170.139,334.571 167.5,334.5C 166.671,330.514 165.837,326.514 165,322.5C 164.764,320.881 163.931,319.881 162.5,319.5C 162.5,317.167 162.5,314.833 162.5,312.5C 163.222,312.918 163.722,313.584 164,314.5C 169.808,312.368 175.641,312.534 181.5,315C 179.034,315.93 179.201,316.763 182,317.5C 191.088,316.844 200.088,317.511 209,319.5C 210.343,318.786 211.676,319.12 213,320.5C 214.132,317.016 214.632,313.349 214.5,309.5C 214.233,303.491 213.9,297.491 213.5,291.5 Z"/></g>
<g><path style="opacity:1" fill="#1a1464" d="M 432.5,282.5 C 432.5,283.5 432.5,284.5 432.5,285.5C 433.537,298.012 430.537,309.345 423.5,319.5C 419.713,323.63 415.379,326.964 410.5,329.5C 406.447,330.35 402.447,331.516 398.5,333C 389.061,333.867 379.728,333.367 370.5,331.5C 373.524,329.987 376.191,327.987 378.5,325.5C 381.55,326.077 383.55,324.91 384.5,322C 393.021,318.047 401.355,313.714 409.5,309C 418.572,301.115 426.239,292.282 432.5,282.5 Z"/></g>
<g><path style="opacity:1" fill="#178cc6" d="M 356.5,327.5 C 361.097,329.032 365.764,330.365 370.5,331.5C 379.728,333.367 389.061,333.867 398.5,333C 402.447,331.516 406.447,330.35 410.5,329.5C 412.349,333.267 412.849,337.267 412,341.5C 409.56,345.383 407.393,349.383 405.5,353.5C 405.167,353.5 404.833,353.5 404.5,353.5C 403.304,351.019 401.804,351.019 400,353.5C 389.275,351.858 378.441,350.692 367.5,350C 361.842,348.857 356.175,347.524 350.5,346C 336.197,344.447 321.864,343.28 307.5,342.5C 305.077,342.45 303.244,341.45 302,339.5C 296.619,340.764 291.285,339.764 286,336.5C 286.487,338.044 286.987,339.71 287.5,341.5C 279.286,337.305 271.286,332.638 263.5,327.5C 261.469,326.461 260.136,324.795 259.5,322.5C 261.678,321.796 263.678,321.463 265.5,321.5C 266.833,322.5 268.167,323.5 269.5,324.5C 268.45,326.102 269.117,326.935 271.5,327C 276.522,326.826 281.522,326.492 286.5,326C 287.337,327.011 287.67,328.178 287.5,329.5C 291.446,329.556 295.279,328.889 299,327.5C 300.167,327.667 301.333,327.833 302.5,328C 301.833,328.333 301.167,328.667 300.5,329C 308.981,329.948 317.314,331.614 325.5,334C 333.155,334.015 340.822,333.848 348.5,333.5C 348.5,334.5 348.5,335.5 348.5,336.5C 350.2,336.374 351.7,335.707 353,334.5C 358.029,336.949 362.862,336.449 367.5,333C 364.393,331.309 361.059,330.142 357.5,329.5C 357.137,328.817 356.804,328.15 356.5,327.5 Z"/></g>
<g><path style="opacity:1" fill="#1276b4" d="M 150.5,319.5 C 152.288,319.215 153.955,319.548 155.5,320.5C 156.806,322.931 157.806,322.597 158.5,319.5C 160.228,323.308 161.561,323.308 162.5,319.5C 163.931,319.881 164.764,320.881 165,322.5C 165.837,326.514 166.671,330.514 167.5,334.5C 169.081,336.142 169.747,338.142 169.5,340.5C 168.778,340.082 168.278,339.416 168,338.5C 167.682,340.061 166.849,341.228 165.5,342C 166.167,342.333 166.833,342.667 167.5,343C 162.373,343.474 162.373,344.474 167.5,346C 164.89,346.224 162.39,345.724 160,344.5C 159.667,344.833 159.333,345.167 159,345.5C 157.768,342.7 157.101,339.7 157,336.5C 156.667,336.833 156.333,337.167 156,337.5C 155.29,336.027 154.124,335.36 152.5,335.5C 152.784,333.585 152.451,331.919 151.5,330.5C 150.756,326.881 150.423,323.215 150.5,319.5 Z"/></g>
<g><path style="opacity:1" fill="#157fc7" d="M 215.5,307.5 C 215.833,307.5 216.167,307.5 216.5,307.5C 217.194,312.805 217.528,318.138 217.5,323.5C 218.021,327.481 218.354,331.481 218.5,335.5C 218.689,341.542 219.355,347.542 220.5,353.5C 220.167,355.833 219.833,358.167 219.5,360.5C 217.889,359.68 217.222,358.346 217.5,356.5C 214.234,356.567 212.734,354.901 213,351.5C 211.681,353.25 211.181,355.25 211.5,357.5C 208.5,357.833 207.167,356.5 207.5,353.5C 197.156,352.975 186.823,352.309 176.5,351.5C 176.737,352.791 176.404,353.791 175.5,354.5C 172.935,350.041 170.935,345.374 169.5,340.5C 169.747,338.142 169.081,336.142 167.5,334.5C 170.139,334.571 172.306,335.571 174,337.5C 177.249,335.943 180.749,335.277 184.5,335.5C 192.445,336.055 199.945,336.055 207,335.5C 208.167,335.667 209.333,335.833 210.5,336C 209.446,337.388 209.28,338.888 210,340.5C 211.399,340.499 212.899,340.165 214.5,339.5C 215.251,338.624 215.751,337.624 216,336.5C 216.333,336.833 216.667,337.167 217,337.5C 216.834,327.502 216.334,317.502 215.5,307.5 Z"/></g>
<g><path style="opacity:1" fill="#1581b2" d="M 423.5,319.5 C 423.649,320.552 423.483,321.552 423,322.5C 420.833,324.667 418.667,326.833 416.5,329C 419.101,331.498 420.435,330.998 420.5,327.5C 421.93,327.579 423.264,327.246 424.5,326.5C 425.386,327.325 425.719,328.325 425.5,329.5C 428.86,330.21 430.693,328.876 431,325.5C 432.008,327.259 433.508,328.426 435.5,329C 434.316,330.18 433.649,331.68 433.5,333.5C 434.286,337.156 434.453,340.823 434,344.5C 433.107,343.289 432.274,343.289 431.5,344.5C 432.348,346.409 432.682,348.409 432.5,350.5C 432.5,350.833 432.5,351.167 432.5,351.5C 430.989,352.502 429.322,353.169 427.5,353.5C 426.905,350.887 426.071,350.887 425,353.5C 422.725,350.856 420.391,350.856 418,353.5C 417.05,352.978 416.216,352.311 415.5,351.5C 414.304,351.846 414.304,352.346 415.5,353C 414.216,353.684 413.049,353.517 412,352.5C 411.667,353.167 411.333,353.833 411,354.5C 409.172,354.31 407.338,353.977 405.5,353.5C 407.393,349.383 409.56,345.383 412,341.5C 412.849,337.267 412.349,333.267 410.5,329.5C 415.379,326.964 419.713,323.63 423.5,319.5 Z"/></g>
<g><path style="opacity:1" fill="#1486c6" d="M 404.5,353.5 C 403.125,356.027 401.458,358.36 399.5,360.5C 399.071,359.047 398.904,357.381 399,355.5C 398.326,356.578 397.326,357.245 396,357.5C 393.264,355.741 390.431,355.408 387.5,356.5C 389.708,358.763 389.041,360.429 385.5,361.5C 379.638,360.004 373.638,358.837 367.5,358C 360.809,357.831 354.142,357.331 347.5,356.5C 337.384,351.644 326.718,350.311 315.5,352.5C 316.981,353.944 316.648,354.611 314.5,354.5C 312.5,354.167 310.5,353.833 308.5,353.5C 301.657,349.245 294.657,345.245 287.5,341.5C 286.987,339.71 286.487,338.044 286,336.5C 291.285,339.764 296.619,340.764 302,339.5C 303.244,341.45 305.077,342.45 307.5,342.5C 321.864,343.28 336.197,344.447 350.5,346C 356.175,347.524 361.842,348.857 367.5,350C 378.441,350.692 389.275,351.858 400,353.5C 401.804,351.019 403.304,351.019 404.5,353.5 Z"/></g>
<g><path style="opacity:1" fill="#8b38b2" d="M 147.5,309.5 C 148.491,315.979 148.824,322.646 148.5,329.5C 149.096,344.906 150.43,360.24 152.5,375.5C 152.456,378.555 152.123,381.555 151.5,384.5C 149.579,385.641 147.579,385.808 145.5,385C 140.678,380.844 135.345,377.511 129.5,375C 123.994,368.852 118.828,362.352 114,355.5C 111.881,351.598 110.048,347.598 108.5,343.5C 108.804,342.85 109.137,342.183 109.5,341.5C 112.854,340.485 116.188,339.485 119.5,338.5C 119.5,337.5 119.5,336.5 119.5,335.5C 122.167,335.5 124.833,335.5 127.5,335.5C 127.5,332.833 127.5,330.167 127.5,327.5C 132.875,327.828 138.208,327.495 143.5,326.5C 146.855,321.362 148.188,315.696 147.5,309.5 Z"/></g>
<g><path style="opacity:1" fill="#1377b3" d="M 263.5,327.5 C 271.286,332.638 279.286,337.305 287.5,341.5C 294.657,345.245 301.657,349.245 308.5,353.5C 301.016,353.84 293.349,353.84 285.5,353.5C 285.33,352.178 285.663,351.011 286.5,350C 279.969,349.151 273.636,348.318 267.5,347.5C 261.224,342.893 255.557,337.559 250.5,331.5C 255.693,333.02 261.026,333.853 266.5,334C 265.833,335 265.167,336 264.5,337C 266.167,339 267.833,339 269.5,337C 267.875,336.147 267.542,335.147 268.5,334C 266.53,331.684 264.196,329.851 261.5,328.5C 261.957,327.702 262.624,327.369 263.5,327.5 Z"/></g>
<g><path style="opacity:1" fill="#7a2ca6" d="M 225.5,300.5 C 225.335,303.518 225.502,306.518 226,309.5C 227.688,311.045 229.688,312.045 232,312.5C 231.845,314.811 231.845,317.144 232,319.5C 236.922,329.679 242.089,339.679 247.5,349.5C 247.586,350.496 247.252,351.329 246.5,352C 248.481,352.605 248.815,353.605 247.5,355C 248.167,355.667 248.833,356.333 249.5,357C 248.289,358.113 248.289,359.28 249.5,360.5C 248.833,360.833 248.167,361.167 247.5,361.5C 245.666,360.246 243.666,359.579 241.5,359.5C 241.714,355.743 240.714,355.076 238.5,357.5C 237.232,356.572 235.899,356.405 234.5,357C 236.662,358.493 238.662,360.16 240.5,362C 238.231,363.807 236.397,363.307 235,360.5C 234.5,361 234,361.5 233.5,362C 233.461,363.245 233.795,364.578 234.5,366C 233.796,369.128 233.296,372.294 233,375.5C 232.517,374.552 232.351,373.552 232.5,372.5C 231.5,372.5 230.5,372.5 229.5,372.5C 229.423,368.123 228.923,363.79 228,359.5C 227.667,360.167 227.333,360.833 227,361.5C 225.615,360.449 224.615,359.116 224,357.5C 222.617,347.51 221.284,337.51 220,327.5C 219.392,325.934 218.558,324.6 217.5,323.5C 217.528,318.138 217.194,312.805 216.5,307.5C 216.172,302.125 216.505,296.792 217.5,291.5C 219.939,294.72 222.606,297.72 225.5,300.5 Z"/></g>
<g><path style="opacity:1" fill="#1372b4" d="M 267.5,347.5 C 273.636,348.318 279.969,349.151 286.5,350C 285.663,351.011 285.33,352.178 285.5,353.5C 293.349,353.84 301.016,353.84 308.5,353.5C 310.5,353.833 312.5,354.167 314.5,354.5C 316.914,355.719 319.247,357.219 321.5,359C 328.355,360.181 334.855,362.348 341,365.5C 347.367,366.519 353.534,367.853 359.5,369.5C 351.446,369.205 343.446,368.372 335.5,367C 334.069,366.535 332.903,365.701 332,364.5C 330.915,365.293 329.748,365.96 328.5,366.5C 322.924,366.346 317.424,365.012 312,362.5C 311.275,363.059 310.442,363.392 309.5,363.5C 305.862,362.818 302.195,362.318 298.5,362C 295.928,358.379 292.428,356.546 288,356.5C 287.072,359.035 285.238,360.035 282.5,359.5C 279.316,357.158 275.983,354.992 272.5,353C 270.627,351.296 268.96,349.463 267.5,347.5 Z"/></g>
<g><path style="opacity:1" fill="#551e7f" d="M 225.5,300.5 C 230.045,307.572 234.879,314.572 240,321.5C 243.723,324.628 247.223,327.961 250.5,331.5C 255.557,337.559 261.224,342.893 267.5,347.5C 268.96,349.463 270.627,351.296 272.5,353C 275.983,354.992 279.316,357.158 282.5,359.5C 288.142,363.648 293.808,367.981 299.5,372.5C 291.301,377.432 282.968,382.099 274.5,386.5C 274.833,385.833 275.167,385.167 275.5,384.5C 276.779,383.032 278.446,382.365 280.5,382.5C 280.33,381.178 280.663,380.011 281.5,379C 277.919,377.42 274.586,375.42 271.5,373C 269.992,369.586 267.326,367.586 263.5,367C 258.047,361.249 252.714,355.416 247.5,349.5C 242.089,339.679 236.922,329.679 232,319.5C 231.845,317.144 231.845,314.811 232,312.5C 229.688,312.045 227.688,311.045 226,309.5C 225.502,306.518 225.335,303.518 225.5,300.5 Z"/></g>
<g><path style="opacity:1" fill="#6746a5" d="M 147.5,239.5 C 147.333,260.836 147.5,282.169 148,303.5C 148.945,308.956 149.778,314.289 150.5,319.5C 150.423,323.215 150.756,326.881 151.5,330.5C 151.335,333.85 151.502,337.183 152,340.5C 153.373,347.662 155.207,354.662 157.5,361.5C 155.575,359.303 153.908,356.969 152.5,354.5C 151.288,346.988 150.454,339.321 150,331.5C 149.722,330.584 149.222,329.918 148.5,329.5C 148.824,322.646 148.491,315.979 147.5,309.5C 146.531,294.215 146.198,278.881 146.5,263.5C 146.174,255.316 146.508,247.316 147.5,239.5 Z"/></g>
<g><path style="opacity:1" fill="#1381c7" d="M 399.5,360.5 C 395.78,365.865 390.78,369.532 384.5,371.5C 376.287,371.84 367.954,371.174 359.5,369.5C 353.534,367.853 347.367,366.519 341,365.5C 334.855,362.348 328.355,360.181 321.5,359C 319.247,357.219 316.914,355.719 314.5,354.5C 316.648,354.611 316.981,353.944 315.5,352.5C 326.718,350.311 337.384,351.644 347.5,356.5C 354.142,357.331 360.809,357.831 367.5,358C 373.638,358.837 379.638,360.004 385.5,361.5C 389.041,360.429 389.708,358.763 387.5,356.5C 390.431,355.408 393.264,355.741 396,357.5C 397.326,357.245 398.326,356.578 399,355.5C 398.904,357.381 399.071,359.047 399.5,360.5 Z"/></g>
<g><path style="opacity:1" fill="#1276b3" d="M 427.5,353.5 C 428.473,355.068 428.64,356.735 428,358.5C 423.92,361.457 419.753,364.29 415.5,367C 405.287,369.625 394.953,371.458 384.5,372.5C 384.5,372.167 384.5,371.833 384.5,371.5C 390.78,369.532 395.78,365.865 399.5,360.5C 401.458,358.36 403.125,356.027 404.5,353.5C 404.833,353.5 405.167,353.5 405.5,353.5C 407.338,353.977 409.172,354.31 411,354.5C 411.333,353.833 411.667,353.167 412,352.5C 413.049,353.517 414.216,353.684 415.5,353C 414.304,352.346 414.304,351.846 415.5,351.5C 416.216,352.311 417.05,352.978 418,353.5C 420.391,350.856 422.725,350.856 425,353.5C 426.071,350.887 426.905,350.887 427.5,353.5 Z"/></g>
<g><path style="opacity:1" fill="#1274c8" d="M 218.5,335.5 C 220.753,346.117 222.753,356.784 224.5,367.5C 224.666,371.514 224.499,375.514 224,379.5C 222.068,377.962 219.901,376.795 217.5,376C 209.221,374.563 200.888,373.563 192.5,373C 190.667,372.5 189.5,371.333 189,369.5C 188.751,370.624 188.251,371.624 187.5,372.5C 185.703,370.551 183.703,368.884 181.5,367.5C 180.833,367.5 180.5,367.167 180.5,366.5C 179.646,362.039 177.979,358.039 175.5,354.5C 176.404,353.791 176.737,352.791 176.5,351.5C 186.823,352.309 197.156,352.975 207.5,353.5C 207.167,356.5 208.5,357.833 211.5,357.5C 211.181,355.25 211.681,353.25 213,351.5C 212.734,354.901 214.234,356.567 217.5,356.5C 217.222,358.346 217.889,359.68 219.5,360.5C 219.833,358.167 220.167,355.833 220.5,353.5C 219.355,347.542 218.689,341.542 218.5,335.5 Z"/></g>
<g><path style="opacity:1" fill="#106cb3" d="M 359.5,369.5 C 367.954,371.174 376.287,371.84 384.5,371.5C 384.5,371.833 384.5,372.167 384.5,372.5C 378.843,375.047 373.176,377.38 367.5,379.5C 360.646,381.741 353.479,382.741 346,382.5C 336.204,381.083 326.37,379.916 316.5,379C 313.721,378.439 311.054,377.606 308.5,376.5C 305.5,375.167 302.5,373.833 299.5,372.5C 293.808,367.981 288.142,363.648 282.5,359.5C 285.238,360.035 287.072,359.035 288,356.5C 292.428,356.546 295.928,358.379 298.5,362C 302.195,362.318 305.862,362.818 309.5,363.5C 310.442,363.392 311.275,363.059 312,362.5C 317.424,365.012 322.924,366.346 328.5,366.5C 329.748,365.96 330.915,365.293 332,364.5C 332.903,365.701 334.069,366.535 335.5,367C 343.446,368.372 351.446,369.205 359.5,369.5 Z"/></g>
<g><path style="opacity:1" fill="#6a249d" d="M 217.5,323.5 C 218.558,324.6 219.392,325.934 220,327.5C 221.284,337.51 222.617,347.51 224,357.5C 224.615,359.116 225.615,360.449 227,361.5C 227.333,360.833 227.667,360.167 228,359.5C 228.923,363.79 229.423,368.123 229.5,372.5C 230.5,372.5 231.5,372.5 232.5,372.5C 232.351,373.552 232.517,374.552 233,375.5C 233.296,372.294 233.796,369.128 234.5,366C 233.795,364.578 233.461,363.245 233.5,362C 234,361.5 234.5,361 235,360.5C 236.397,363.307 238.231,363.807 240.5,362C 238.662,360.16 236.662,358.493 234.5,357C 235.899,356.405 237.232,356.572 238.5,357.5C 240.714,355.076 241.714,355.743 241.5,359.5C 243.666,359.579 245.666,360.246 247.5,361.5C 248.167,361.167 248.833,360.833 249.5,360.5C 248.289,359.28 248.289,358.113 249.5,357C 248.833,356.333 248.167,355.667 247.5,355C 248.815,353.605 248.481,352.605 246.5,352C 247.252,351.329 247.586,350.496 247.5,349.5C 252.714,355.416 258.047,361.249 263.5,367C 267.326,367.586 269.992,369.586 271.5,373C 274.586,375.42 277.919,377.42 281.5,379C 280.663,380.011 280.33,381.178 280.5,382.5C 278.446,382.365 276.779,383.032 275.5,384.5C 274.07,384.421 272.736,384.754 271.5,385.5C 270.406,383.164 269.073,383.164 267.5,385.5C 266.691,387.071 266.357,388.738 266.5,390.5C 263.472,390.661 260.639,389.994 258,388.5C 257.5,388.667 257,388.833 256.5,389C 258.592,389.953 258.925,391.286 257.5,393C 253.967,393.874 250.634,395.208 247.5,397C 242.416,397.426 237.416,398.26 232.5,399.5C 232.167,399.5 231.833,399.5 231.5,399.5C 229.099,388.683 226.765,378.017 224.5,367.5C 222.753,356.784 220.753,346.117 218.5,335.5C 218.354,331.481 218.021,327.481 217.5,323.5 Z"/></g>
<g><path style="opacity:1" fill="#1169b4" d="M 151.5,330.5 C 152.451,331.919 152.784,333.585 152.5,335.5C 154.124,335.36 155.29,336.027 156,337.5C 156.333,337.167 156.667,336.833 157,336.5C 157.101,339.7 157.768,342.7 159,345.5C 159.333,345.167 159.667,344.833 160,344.5C 162.39,345.724 164.89,346.224 167.5,346C 162.373,344.474 162.373,343.474 167.5,343C 166.833,342.667 166.167,342.333 165.5,342C 166.849,341.228 167.682,340.061 168,338.5C 168.278,339.416 168.778,340.082 169.5,340.5C 170.935,345.374 172.935,350.041 175.5,354.5C 177.979,358.039 179.646,362.039 180.5,366.5C 178.088,367.345 175.922,367.345 174,366.5C 172.493,367.505 171.327,368.838 170.5,370.5C 169.518,365.298 168.352,365.298 167,370.5C 166.25,369.874 165.416,369.374 164.5,369C 165.833,368.333 165.833,367.667 164.5,367C 163.207,366.51 161.873,366.343 160.5,366.5C 160.279,364.336 159.279,362.67 157.5,361.5C 155.207,354.662 153.373,347.662 152,340.5C 151.502,337.183 151.335,333.85 151.5,330.5 Z"/></g>
<g><path style="opacity:1" fill="#0f61b3" d="M 157.5,361.5 C 159.279,362.67 160.279,364.336 160.5,366.5C 161.873,366.343 163.207,366.51 164.5,367C 165.833,367.667 165.833,368.333 164.5,369C 165.416,369.374 166.25,369.874 167,370.5C 168.352,365.298 169.518,365.298 170.5,370.5C 171.327,368.838 172.493,367.505 174,366.5C 175.922,367.345 178.088,367.345 180.5,366.5C 180.5,367.167 180.833,367.5 181.5,367.5C 183.299,372.804 186.466,377.137 191,380.5C 191.985,382.641 193.152,384.641 194.5,386.5C 191.369,387.066 188.536,386.066 186,383.5C 185.667,383.833 185.333,384.167 185,384.5C 180.891,384.529 179.057,382.529 179.5,378.5C 177.08,378.292 174.747,378.626 172.5,379.5C 171.289,380.274 171.289,381.107 172.5,382C 171.069,382.465 169.903,383.299 169,384.5C 167.968,382.973 166.801,381.64 165.5,380.5C 163.095,375.451 160.595,370.451 158,365.5C 157.51,364.207 157.343,362.873 157.5,361.5 Z"/></g>
<g><path style="opacity:1" fill="#0f62a1" d="M 432.5,351.5 C 425.344,369.531 413.011,382.531 395.5,390.5C 395.881,389.069 396.881,388.236 398.5,388C 393.045,387.181 387.878,385.681 383,383.5C 381.612,384.554 380.112,384.72 378.5,384C 376.999,382.748 375.332,381.748 373.5,381C 374.167,380.333 374.833,379.667 375.5,379C 372.843,378.825 370.176,378.992 367.5,379.5C 373.176,377.38 378.843,375.047 384.5,372.5C 394.953,371.458 405.287,369.625 415.5,367C 419.753,364.29 423.92,361.457 428,358.5C 428.64,356.735 428.473,355.068 427.5,353.5C 429.322,353.169 430.989,352.502 432.5,351.5 Z"/></g>
<g><path style="opacity:1" fill="#782f9d" d="M 97.5,278.5 C 97.8333,278.5 98.1667,278.5 98.5,278.5C 98.5,288.5 98.5,298.5 98.5,308.5C 99.4438,320.981 102.777,332.648 108.5,343.5C 110.048,347.598 111.881,351.598 114,355.5C 118.828,362.352 123.994,368.852 129.5,375C 135.345,377.511 140.678,380.844 145.5,385C 147.579,385.808 149.579,385.641 151.5,384.5C 152.123,381.555 152.456,378.555 152.5,375.5C 150.43,360.24 149.096,344.906 148.5,329.5C 149.222,329.918 149.722,330.584 150,331.5C 150.454,339.321 151.288,346.988 152.5,354.5C 152.397,365.217 154.23,375.55 158,385.5C 158.498,388.817 158.665,392.15 158.5,395.5C 154.833,395.5 151.167,395.5 147.5,395.5C 147.5,396.833 147.5,398.167 147.5,399.5C 144.428,399.183 141.428,399.516 138.5,400.5C 135.051,403.824 131.051,406.324 126.5,408C 126.105,410.781 124.772,412.947 122.5,414.5C 116.437,411.4 111.937,406.734 109,400.5C 108.329,399.748 107.496,399.414 106.5,399.5C 101.077,390.23 98.0769,380.23 97.5,369.5C 97.5,339.167 97.5,308.833 97.5,278.5 Z"/></g>
<g><path style="opacity:1" fill="#0e5ca0" d="M 308.5,376.5 C 311.054,377.606 313.721,378.439 316.5,379C 326.37,379.916 336.204,381.083 346,382.5C 353.479,382.741 360.646,381.741 367.5,379.5C 370.176,378.992 372.843,378.825 375.5,379C 374.833,379.667 374.167,380.333 373.5,381C 375.332,381.748 376.999,382.748 378.5,384C 380.112,384.72 381.612,384.554 383,383.5C 387.878,385.681 393.045,387.181 398.5,388C 396.881,388.236 395.881,389.069 395.5,390.5C 390.54,392.91 385.206,394.41 379.5,395C 353.662,396.792 329.996,390.625 308.5,376.5 Z"/></g>
<g><path style="opacity:1" fill="#1068c8" d="M 181.5,367.5 C 183.703,368.884 185.703,370.551 187.5,372.5C 188.251,371.624 188.751,370.624 189,369.5C 189.5,371.333 190.667,372.5 192.5,373C 200.888,373.563 209.221,374.563 217.5,376C 219.901,376.795 222.068,377.962 224,379.5C 224.499,375.514 224.666,371.514 224.5,367.5C 226.765,378.017 229.099,388.683 231.5,399.5C 224.173,400.793 216.839,400.793 209.5,399.5C 204.705,394.887 199.705,390.554 194.5,386.5C 193.152,384.641 191.985,382.641 191,380.5C 186.466,377.137 183.299,372.804 181.5,367.5 Z"/></g>
<g><path style="opacity:1" fill="#0c5ab4" d="M 194.5,386.5 C 199.705,390.554 204.705,394.887 209.5,399.5C 216.839,400.793 224.173,400.793 231.5,399.5C 231.833,399.5 232.167,399.5 232.5,399.5C 232.394,402.079 233.061,404.412 234.5,406.5C 233.047,408.229 231.047,409.229 228.5,409.5C 227.289,408.726 227.289,407.893 228.5,407C 223.577,406.693 219.244,405.027 215.5,402C 203.841,400.757 192.174,399.59 180.5,398.5C 178.936,396.749 176.936,395.749 174.5,395.5C 174.027,394.094 173.027,393.427 171.5,393.5C 171.657,392.127 171.49,390.793 171,389.5C 168.634,386.757 166.8,383.757 165.5,380.5C 166.801,381.64 167.968,382.973 169,384.5C 169.903,383.299 171.069,382.465 172.5,382C 171.289,381.107 171.289,380.274 172.5,379.5C 174.747,378.626 177.08,378.292 179.5,378.5C 179.057,382.529 180.891,384.529 185,384.5C 185.333,384.167 185.667,383.833 186,383.5C 188.536,386.066 191.369,387.066 194.5,386.5 Z"/></g>
<g><path style="opacity:1" fill="#591d89" d="M 275.5,384.5 C 275.167,385.167 274.833,385.833 274.5,386.5C 262.662,394.256 250.328,401.256 237.5,407.5C 236.391,407.443 235.391,407.11 234.5,406.5C 233.061,404.412 232.394,402.079 232.5,399.5C 237.416,398.26 242.416,397.426 247.5,397C 250.634,395.208 253.967,393.874 257.5,393C 258.925,391.286 258.592,389.953 256.5,389C 257,388.833 257.5,388.667 258,388.5C 260.639,389.994 263.472,390.661 266.5,390.5C 266.357,388.738 266.691,387.071 267.5,385.5C 269.073,383.164 270.406,383.164 271.5,385.5C 272.736,384.754 274.07,384.421 275.5,384.5 Z"/></g>
<g><path style="opacity:1" fill="#10499f" d="M 174.5,395.5 C 176.936,395.749 178.936,396.749 180.5,398.5C 192.174,399.59 203.841,400.757 215.5,402C 219.244,405.027 223.577,406.693 228.5,407C 227.289,407.893 227.289,408.726 228.5,409.5C 231.047,409.229 233.047,408.229 234.5,406.5C 235.391,407.11 236.391,407.443 237.5,407.5C 235.178,409.664 232.511,411.331 229.5,412.5C 229.265,411.903 228.765,411.57 228,411.5C 219.624,413.518 211.124,414.018 202.5,413C 191.094,410.465 181.761,404.631 174.5,395.5 Z"/></g>
<g><path style="opacity:1" fill="#65248f" d="M 152.5,354.5 C 153.908,356.969 155.575,359.303 157.5,361.5C 157.343,362.873 157.51,364.207 158,365.5C 160.595,370.451 163.095,375.451 165.5,380.5C 166.8,383.757 168.634,386.757 171,389.5C 171.49,390.793 171.657,392.127 171.5,393.5C 171.38,394.586 170.713,395.253 169.5,395.5C 166.674,395.176 164.174,394.176 162,392.5C 161.833,393.333 161.667,394.167 161.5,395C 166.55,410.05 176.55,420.05 191.5,425C 194.482,425.498 197.482,425.665 200.5,425.5C 200.5,426.5 200.5,427.5 200.5,428.5C 194.119,429.59 188.119,431.59 182.5,434.5C 149.756,439.026 124.423,427.359 106.5,399.5C 107.496,399.414 108.329,399.748 109,400.5C 111.937,406.734 116.437,411.4 122.5,414.5C 124.772,412.947 126.105,410.781 126.5,408C 131.051,406.324 135.051,403.824 138.5,400.5C 141.428,399.516 144.428,399.183 147.5,399.5C 147.5,398.167 147.5,396.833 147.5,395.5C 151.167,395.5 154.833,395.5 158.5,395.5C 158.665,392.15 158.498,388.817 158,385.5C 154.23,375.55 152.397,365.217 152.5,354.5 Z"/></g>
<g><path style="opacity:1" fill="#4d1a72" d="M 171.5,393.5 C 173.027,393.427 174.027,394.094 174.5,395.5C 181.761,404.631 191.094,410.465 202.5,413C 211.124,414.018 219.624,413.518 228,411.5C 228.765,411.57 229.265,411.903 229.5,412.5C 220.394,418.226 211.061,423.726 201.5,429C 195.409,431.753 189.076,433.587 182.5,434.5C 188.119,431.59 194.119,429.59 200.5,428.5C 200.5,427.5 200.5,426.5 200.5,425.5C 197.482,425.665 194.482,425.498 191.5,425C 176.55,420.05 166.55,410.05 161.5,395C 161.667,394.167 161.833,393.333 162,392.5C 164.174,394.176 166.674,395.176 169.5,395.5C 170.713,395.253 171.38,394.586 171.5,393.5 Z"/></g>
</svg>
