<?xml version="1.0" standalone="no"?>
<!DOCTYPE svg PUBLIC "-//W3C//DTD SVG 20010904//EN"
 "http://www.w3.org/TR/2001/REC-SVG-20010904/DTD/svg10.dtd">
<svg version="1.0" xmlns="http://www.w3.org/2000/svg"
 width="500.000000pt" height="500.000000pt" viewBox="0 0 500.000000 500.000000"
 preserveAspectRatio="xMidYMid meet">
<metadata>
Created by potrace 1.16, written by Peter Selinger 2001-2019
</metadata>
<g transform="translate(0.000000,500.000000) scale(0.100000,-0.100000)"
fill="#000000" stroke="none">
<path d="M2130 4093 c-264 -25 -548 -107 -780 -224 -116 -58 -202 -108 -187
-109 4 0 44 19 90 41 280 141 627 221 967 223 91 0 191 -3 223 -7 32 -5 57 -5
57 0 0 5 -33 26 -72 46 -70 36 -77 37 -168 36 -52 -1 -111 -4 -130 -6z"/>
<path d="M3490 3446 c0 -4 8 -23 19 -44 10 -20 31 -75 46 -122 37 -116 40
-285 6 -404 -59 -211 -205 -392 -401 -499 -144 -79 -363 -137 -515 -137 -25 0
-45 -4 -45 -9 0 -14 66 -22 224 -27 l149 -5 41 -58 c68 -97 145 -179 227 -240
43 -33 75 -61 72 -64 -2 -3 6 -11 19 -18 36 -19 62 -59 38 -59 -5 0 -10 7 -10
15 0 18 -28 34 -50 28 -10 -3 -21 0 -24 6 -5 7 0 9 11 5 11 -4 14 -3 7 3 -6 4
-14 15 -17 23 -4 12 -6 12 -6 -1 -1 -9 -8 -20 -17 -23 -24 -9 -144 -7 -144 3
0 9 -117 22 -192 21 -27 -1 -48 3 -48 8 0 8 -42 12 -270 26 -84 5 -100 9 -129
25 -16 9 -21 9 -16 1 6 -9 2 -9 -14 -1 -11 7 -21 16 -21 21 0 6 -6 10 -13 10
-31 0 -267 267 -267 301 0 5 -5 9 -11 9 -7 0 -8 -37 -3 -118 5 -87 3 -125 -6
-142 -11 -20 -10 -22 4 -17 20 8 20 3 1 -17 -16 -16 -68 -13 -91 5 -6 5 -22 8
-35 8 -56 -3 -249 15 -249 23 0 4 -24 8 -53 8 -30 0 -57 3 -61 7 -4 4 -15 8
-24 8 -19 0 -23 17 -52 210 -21 138 -38 207 -39 158 -2 -43 -18 -23 -25 30 -9
78 -7 306 4 410 5 51 14 148 21 217 6 69 13 132 14 140 1 8 9 32 18 52 9 21
17 54 17 74 0 34 -1 36 -27 29 -42 -10 -163 -60 -248 -101 -174 -85 -346 -233
-409 -353 -87 -165 -86 -348 4 -544 12 -27 19 -51 16 -55 -4 -3 7 -20 24 -37
l30 -31 3 -484 c3 -477 3 -486 26 -555 99 -297 321 -483 627 -526 130 -18 309
18 429 86 22 13 245 141 495 285 l454 263 46 -27 c353 -211 701 -263 945 -142
164 82 287 230 354 425 12 35 20 70 17 77 -3 7 0 14 6 16 6 2 10 58 9 153 -1
240 0 227 -17 210 -9 -8 -20 -15 -25 -15 -5 0 0 9 11 20 11 11 20 28 20 38 -1
16 -1 16 -11 0 -14 -24 -29 -23 -29 3 0 11 5 17 10 14 6 -3 10 1 10 9 0 8 -3
17 -7 19 -16 10 -6 133 15 188 98 258 20 580 -189 773 -58 54 -99 80 -464 291
-93 54 -180 105 -192 113 -13 8 -23 11 -23 8z"/>
<path d="M2146 3412 c-32 -52 -64 -698 -36 -742 8 -12 34 -15 141 -13 73 1
164 7 203 13 207 34 355 123 413 249 22 46 25 63 21 126 -7 107 -60 191 -164
260 -76 51 -162 83 -269 100 -95 16 -300 20 -309 7z"/>
</g>
</svg>
